<svg width="24" height="24" viewBox="0 0 24 24" fill="none" xmlns="http://www.w3.org/2000/svg">
<mask id="mask0_10_24714" style="mask-type:alpha" maskUnits="userSpaceOnUse" x="0" y="0" width="24" height="24">
<rect width="24" height="24" fill="#D9D9D9"/>
</mask>
<g mask="url(#mask0_10_24714)">
<path d="M11.9481 16.6057C12.234 16.6057 12.4753 16.5073 12.6721 16.3105C12.8689 16.1137 12.9673 15.8724 12.9673 15.5865C12.9673 15.3006 12.8689 15.0592 12.6721 14.8625C12.4753 14.6657 12.234 14.5673 11.9481 14.5673C11.6622 14.5673 11.4208 14.6657 11.224 14.8625C11.0272 15.0592 10.9289 15.3006 10.9289 15.5865C10.9289 15.8724 11.0272 16.1137 11.224 16.3105C11.4208 16.5073 11.6622 16.6057 11.9481 16.6057ZM11.2404 13.025H12.648C12.6544 12.7737 12.6718 12.5576 12.7 12.3769C12.7282 12.1961 12.7839 12.0205 12.8673 11.85C12.9506 11.6794 13.0564 11.515 13.1846 11.3567C13.3128 11.1983 13.4839 11.0121 13.698 10.798C14.2301 10.266 14.6105 9.81373 14.8394 9.4413C15.0682 9.06887 15.1827 8.64547 15.1827 8.17112C15.1827 7.33908 14.8987 6.66824 14.3307 6.15862C13.7628 5.64901 13.0314 5.3942 12.1365 5.3942C11.3224 5.3942 10.6266 5.60158 10.049 6.01633C9.47148 6.43106 9.0609 6.97112 8.8173 7.6365L10.1019 8.15188C10.2442 7.72751 10.4807 7.38103 10.8115 7.11245C11.1423 6.84387 11.557 6.70958 12.0557 6.70958C12.5955 6.70958 13.017 6.85605 13.3202 7.149C13.6234 7.44195 13.775 7.79804 13.775 8.21728C13.775 8.52624 13.6833 8.82945 13.5 9.1269C13.3166 9.42433 13.034 9.74548 12.6519 10.0904C12.3878 10.3237 12.1683 10.5496 11.9932 10.7682C11.8182 10.9868 11.6724 11.2115 11.5557 11.4423C11.4391 11.673 11.3574 11.9131 11.3106 12.1625C11.2638 12.4118 11.2404 12.6993 11.2404 13.025ZM12 22.2884L9.21153 19.5H5.3077C4.80257 19.5 4.375 19.325 4.025 18.975C3.675 18.625 3.5 18.1974 3.5 17.6923V4.3077C3.5 3.80257 3.675 3.375 4.025 3.025C4.375 2.675 4.80257 2.5 5.3077 2.5H18.6923C19.1974 2.5 19.625 2.675 19.975 3.025C20.325 3.375 20.5 3.80257 20.5 4.3077V17.6923C20.5 18.1974 20.325 18.625 19.975 18.975C19.625 19.325 19.1974 19.5 18.6923 19.5H14.7884L12 22.2884ZM5.3077 18H9.8192L12 20.1807L14.1808 18H18.6923C18.782 18 18.8557 17.9711 18.9134 17.9134C18.9711 17.8557 19 17.782 19 17.6922V4.30768C19 4.21793 18.9711 4.1442 18.9134 4.0865C18.8557 4.0288 18.782 3.99995 18.6923 3.99995H5.3077C5.21795 3.99995 5.14423 4.0288 5.08653 4.0865C5.02883 4.1442 4.99997 4.21793 4.99997 4.30768V17.6922C4.99997 17.782 5.02883 17.8557 5.08653 17.9134C5.14423 17.9711 5.21795 18 5.3077 18Z" fill="#1C1B1F"/>
</g>
</svg>
