<svg width="32" height="32" viewBox="0 0 32 32" fill="none" xmlns="http://www.w3.org/2000/svg">
<path d="M15.9999 31.0868C23.4599 31.0868 29.6605 24.8994 29.6605 17.4262C29.6605 10.8371 24.8394 5.25194 18.5845 4.02051V2.11765C18.5845 1.1668 17.9285 0.911938 17.1919 1.4348L12.9194 4.42108C12.3171 4.84965 12.3034 5.49251 12.9194 5.93479L17.1782 8.93479C17.9285 9.47022 18.5845 9.21594 18.5845 8.25137V6.33708C23.6474 7.48851 27.3702 12.0022 27.3702 17.4262C27.3764 18.9218 27.0866 20.4038 26.5176 21.7868C25.9485 23.1699 25.1115 24.4267 24.0546 25.4849C22.9977 26.543 21.7419 27.3816 20.3595 27.9523C18.9771 28.523 17.4955 28.8146 15.9999 28.8102C9.67821 28.8102 4.60278 23.7474 4.61593 17.4262C4.62907 13.6228 6.47764 10.2611 9.33021 8.22565C9.87935 7.81022 10.0536 7.18051 9.70507 6.61822C9.38393 6.06965 8.64736 5.92165 8.05764 6.37708C4.60278 8.88165 2.33936 12.9262 2.33936 17.4262C2.33936 24.8994 8.52678 31.0868 15.9999 31.0868ZM19.2274 23.0645C21.4508 23.0645 22.9108 20.9617 22.9108 17.7479C22.9108 14.5068 21.4508 12.3771 19.2274 12.3771C17.0039 12.3771 15.5445 14.5068 15.5445 17.7479C15.5445 20.9622 17.0045 23.0645 19.2274 23.0645ZM12.2502 22.9039C12.7719 22.9039 13.1074 22.5422 13.1074 21.9799V13.5559C13.1074 12.8994 12.7588 12.4845 12.1559 12.4845C11.7942 12.4845 11.5399 12.6045 11.0576 12.9262L9.1965 14.1719C8.90164 14.3862 8.75421 14.6274 8.75421 14.9491C8.75421 15.3908 9.10278 15.7657 9.53136 15.7657C9.78564 15.7657 9.90621 15.7119 10.1742 15.5245L11.4199 14.6137V21.9794C11.4199 22.5291 11.7548 22.9039 12.2502 22.9039ZM19.2268 21.4439C18.0485 21.4439 17.2851 20.0382 17.2851 17.7479C17.2851 15.4171 18.0348 13.9977 19.2268 13.9977C20.4325 13.9977 21.1554 15.4039 21.1554 17.7479C21.1554 20.0377 20.4188 21.4439 19.2268 21.4439Z" fill="white"/>
</svg>
