<svg width="24" height="24" viewBox="0 0 24 24" fill="none" xmlns="http://www.w3.org/2000/svg">
<path d="M3 17.98V12.707C3 9.074 3 7.257 4.098 6.129C5.196 5.001 6.964 5 10.5 5C14.036 5 15.803 5 16.902 6.129C18 7.257 18 9.074 18 12.708V17.981C18 20.287 18 21.44 17.276 21.852C15.872 22.652 13.241 19.985 11.991 19.182C11.266 18.717 10.903 18.484 10.5 18.484C10.097 18.484 9.734 18.717 9.01 19.182C7.76 19.985 5.128 22.652 3.725 21.852C3 21.44 3 20.287 3 17.981" stroke="#333333" stroke-width="1.5" stroke-linecap="round" stroke-linejoin="round"/>
<path d="M9 2H11C15.714 2 18.071 2 19.535 3.464C21 4.93 21 7.286 21 12V18" stroke="#333333" stroke-width="1.5" stroke-linecap="round" stroke-linejoin="round"/>
</svg>
