<svg width="184" height="132" viewBox="0 0 184 132" fill="none" xmlns="http://www.w3.org/2000/svg">
<path fill-rule="evenodd" clip-rule="evenodd" d="M144.884 90.8983C145.318 90.5215 145.86 90.2933 146.433 90.2469L146.445 90.2458L169.354 88.6599C169.701 88.6361 170.049 88.7087 170.357 88.8697C170.662 89.029 170.917 89.2687 171.095 89.5627C171.097 89.5658 171.099 89.5688 171.101 89.5719L171.103 89.5751C171.28 89.8729 171.372 90.2139 171.368 90.5605C171.365 90.9083 171.265 91.2482 171.08 91.5426L158.85 111.002C158.538 111.485 158.081 111.855 157.544 112.059C157.007 112.262 156.419 112.289 155.865 112.135C155.312 111.981 154.823 111.653 154.469 111.201C154.115 110.749 153.915 110.195 153.898 109.621C153.897 109.607 153.897 109.593 153.897 109.579L153.996 99.8059L145.346 95.2843C145.333 95.2776 145.32 95.2706 145.308 95.2634C144.81 94.977 144.417 94.5389 144.186 94.0131C143.955 93.4873 143.898 92.9014 144.023 92.341C144.149 91.7806 144.451 91.2751 144.884 90.8983ZM167.44 90.5073L146.602 92.3938C146.489 92.4039 146.382 92.4493 146.297 92.5237C146.21 92.599 146.15 92.7001 146.125 92.8122C146.1 92.9243 146.111 93.0415 146.157 93.1466C146.201 93.2469 146.275 93.3313 146.368 93.3885L155.259 97.7946L167.44 90.5073ZM156.319 99.67L168.546 92.355L157.038 109.838C156.976 109.932 156.885 110.005 156.779 110.045C156.672 110.086 156.554 110.091 156.444 110.06C156.333 110.03 156.235 109.964 156.164 109.874C156.097 109.787 156.057 109.683 156.051 109.573L156.319 99.67Z" fill="#9603F2"/>
<path d="M83.3245 34.9161C71.7178 46.6022 51.2094 75.018 62.0289 95.1922C75.5532 120.41 140.452 78.7988 115.364 67.1662C90.2752 55.5336 65.8814 121.518 101.568 119.891C116.398 118.121 131.22 114.2 145.702 105.012" stroke="#9603F2" stroke-width="2.25" stroke-dasharray="6 6"/>
<rect x="0.00244141" width="173.524" height="58.3398" rx="29.1699" fill="#F2ECFF"/>
<rect x="24.7524" y="20.4316" width="111" height="4.5" rx="2.25" fill="#9603F2"/>
<rect x="38.2524" y="33.9316" width="110.25" height="4.5" rx="2.25" fill="#9603F2"/>
<path d="M40.3918 71.0547L28.4246 54.5999L52.3589 54.5999L40.3918 71.0547Z" fill="#F2ECFF"/>
</svg>
