<svg width="32" height="32" viewBox="0 0 32 32" fill="none" xmlns="http://www.w3.org/2000/svg">
<path d="M16.0002 2.66602C17.7511 2.66602 19.485 3.01089 21.1026 3.68096C22.7203 4.35102 24.1902 5.33314 25.4283 6.57126C27.9288 9.07174 29.3335 12.4631 29.3335 15.9993C29.344 19.078 28.2781 22.0635 26.3202 24.4394L28.9868 27.106C29.1719 27.2935 29.2972 27.5316 29.347 27.7903C29.3968 28.0489 29.369 28.3165 29.2668 28.5593C29.1561 28.7993 28.9766 29.0008 28.751 29.1385C28.5255 29.2762 28.2642 29.3438 28.0002 29.3327H16.0002C12.464 29.3327 9.07257 27.9279 6.57209 25.4274C4.0716 22.927 2.66685 19.5356 2.66685 15.9993C2.66685 12.4631 4.0716 9.07174 6.57209 6.57126C9.07257 4.07077 12.464 2.66602 16.0002 2.66602ZM16.0002 26.666H24.7868L23.5468 25.426C23.2985 25.1762 23.1591 24.8383 23.1591 24.486C23.1591 24.1338 23.2985 23.7958 23.5468 23.546C25.2927 21.8021 26.3799 19.5067 26.6233 17.0511C26.8666 14.5954 26.2509 12.1314 24.8812 10.0787C23.5115 8.02607 21.4725 6.51183 19.1115 5.79398C16.7505 5.07613 14.2137 5.19909 11.9332 6.1419C9.65275 7.08471 7.76971 8.78905 6.60493 10.9645C5.44015 13.14 5.06569 15.6521 5.54534 18.0727C6.025 20.4933 7.3291 22.6727 9.23546 24.2397C11.1418 25.8066 13.5325 26.6641 16.0002 26.666Z" fill="white"/>
</svg>
