<svg width="24" height="24" viewBox="0 0 24 24" fill="none" xmlns="http://www.w3.org/2000/svg">
<path fill-rule="evenodd" clip-rule="evenodd" d="M22.75 7.00125C22.7496 6.1346 22.5533 5.27925 22.1758 4.49915C21.7983 3.71904 21.2493 3.03437 20.5699 2.49631C19.8905 1.95825 19.0983 1.58073 18.2524 1.39196C17.4066 1.20319 16.529 1.20807 15.6853 1.40622C14.8416 1.60437 14.0536 1.99067 13.3803 2.53625C12.7069 3.08182 12.1655 3.77255 11.7967 4.5568C11.4279 5.34105 11.2411 6.19852 11.2503 7.06512C11.2596 7.93173 11.4646 8.78503 11.85 9.56125C11.8571 9.57351 11.8616 9.58714 11.863 9.60125V9.60825L11.566 10.7212C11.5026 10.9585 11.5027 11.2083 11.5664 11.4455C11.63 11.6827 11.7549 11.899 11.9286 12.0727C12.1022 12.2463 12.3185 12.3713 12.5557 12.4349C12.793 12.4985 13.0427 12.4987 13.28 12.4352L14.393 12.1372C14.3917 12.1372 14.3917 12.1372 14.393 12.1372H14.4C14.4142 12.139 14.4278 12.1438 14.44 12.1512C15.3168 12.5872 16.2903 12.792 17.2684 12.7463C18.2465 12.7006 19.1967 12.4059 20.029 11.8901C20.8613 11.3743 21.548 10.6545 22.0242 9.79895C22.5004 8.94339 22.7502 7.9804 22.75 7.00125ZM17 2.75125C17.6405 2.75166 18.2726 2.89683 18.8491 3.17591C19.4256 3.45499 19.9315 3.86076 20.3291 4.36289C20.7268 4.86502 21.0057 5.45052 21.1452 6.07563C21.2847 6.70075 21.2811 7.3493 21.1347 7.97283C20.9883 8.59636 20.7028 9.17873 20.2997 9.67641C19.8965 10.1741 19.3861 10.5742 18.8065 10.8469C18.227 11.1196 17.5933 11.2577 16.9528 11.251C16.3124 11.2443 15.6817 11.093 15.108 10.8082C14.7675 10.6356 14.3757 10.5929 14.006 10.6882L13.06 10.9412L13.313 9.99525C13.4083 9.62554 13.3657 9.23377 13.193 8.89325C12.8708 8.24518 12.7195 7.52557 12.7533 6.80263C12.7871 6.07968 13.005 5.37735 13.3863 4.7622C13.7676 4.14704 14.2996 3.63945 14.932 3.28753C15.5645 2.93561 16.2763 2.75101 17 2.75125Z" fill="#333333"/>
<path fill-rule="evenodd" clip-rule="evenodd" d="M3.00708 6.40913C4.68708 4.72913 7.52308 4.85713 8.69208 6.95313L9.34208 8.11613C10.1051 9.48413 9.78008 11.2111 8.66208 12.3431C8.59603 12.4433 8.55995 12.5602 8.55808 12.6801C8.54508 12.9361 8.63608 13.5291 9.55508 14.4471C10.4731 15.3651 11.0651 15.4571 11.3221 15.4441C11.442 15.4423 11.5589 15.4062 11.6591 15.3401C12.7901 14.2221 14.5181 13.8971 15.8861 14.6601L17.0491 15.3101C19.1451 16.4801 19.2731 19.3151 17.5931 20.9951C16.6941 21.8931 15.4991 22.6921 14.0951 22.7451C12.0151 22.8241 8.55908 22.2861 5.13708 18.8651C1.71608 15.4431 1.17808 11.9881 1.25708 9.90713C1.31008 8.50213 2.10908 7.30713 3.00708 6.40913ZM7.38308 7.68413C6.78308 6.61013 5.17308 6.36413 4.06808 7.47013C3.29308 8.24513 2.78808 9.10013 2.75608 9.96313C2.69008 11.6991 3.11908 14.7251 6.19808 17.8041C9.27708 20.8831 12.3031 21.3121 14.0381 21.2461C14.9011 21.2131 15.7581 20.7091 16.5321 19.9341C17.6381 18.8281 17.3921 17.2181 16.3181 16.6191L15.1551 15.9701C14.4321 15.5671 13.4151 15.7041 12.7031 16.4181C12.6331 16.4881 12.1861 16.9041 11.3951 16.9421C10.5851 16.9821 9.60408 16.6181 8.49508 15.5081C7.38408 14.3981 7.02008 13.4171 7.06008 12.6061C7.09808 11.8151 7.51508 11.3691 7.58408 11.3001C8.29808 10.5861 8.43508 9.57013 8.03208 8.84713L7.38308 7.68413Z" fill="#333333"/>
</svg>
