<svg width="14" height="16" viewBox="0 0 14 16" fill="none" xmlns="http://www.w3.org/2000/svg">
<path d="M5.08826 12.583C4.656 12.583 4.29013 12.4371 3.99064 12.1455C3.69114 11.8538 3.54139 11.4975 3.54139 11.0766V1.58943C3.54139 1.16848 3.69114 0.812174 3.99064 0.520508C4.29013 0.228841 4.656 0.0830078 5.08826 0.0830078H12.2631C12.6954 0.0830078 13.0612 0.228841 13.3607 0.520508C13.6602 0.812174 13.81 1.16848 13.81 1.58943V11.0766C13.81 11.4975 13.6602 11.8538 13.3607 12.1455C13.0612 12.4371 12.6954 12.583 12.2631 12.583H5.08826ZM5.08826 11.333H12.2631C12.3289 11.333 12.3893 11.3063 12.4441 11.2529C12.499 11.1994 12.5264 11.1407 12.5264 11.0766V1.58943C12.5264 1.52531 12.499 1.46654 12.4441 1.41311C12.3893 1.3597 12.3289 1.33299 12.2631 1.33299H5.08826C5.02242 1.33299 4.96208 1.3597 4.90723 1.41311C4.85236 1.46654 4.82493 1.52531 4.82493 1.58943V11.0766C4.82493 11.1407 4.85236 11.1994 4.90723 11.2529C4.96208 11.3063 5.02242 11.333 5.08826 11.333ZM2.09325 15.4996C1.66101 15.4996 1.29514 15.3538 0.99564 15.0621C0.696138 14.7704 0.546387 14.4141 0.546387 13.9932V3.25609H1.82995V13.9932C1.82995 14.0573 1.85737 14.1161 1.91223 14.1695C1.96709 14.2229 2.02743 14.2496 2.09325 14.2496H10.5517V15.4996H2.09325Z" fill="#333333"/>
</svg>
