<svg width="30" height="30" viewBox="0 0 30 30" fill="none" xmlns="http://www.w3.org/2000/svg">
<circle cx="15.0049" cy="15" r="15" fill="#9603F2"/>
<mask id="mask0_1063_5253" style="mask-type:alpha" maskUnits="userSpaceOnUse" x="8" y="8" width="16" height="15">
<rect x="8.00488" y="8" width="15" height="15" fill="#D9D9D9"/>
</mask>
<g mask="url(#mask0_1063_5253)">
<path d="M13.666 18.9375C13.3502 18.9375 13.083 18.8281 12.8643 18.6094C12.6455 18.3906 12.5361 18.1234 12.5361 17.8077V10.6923C12.5361 10.3766 12.6455 10.1094 12.8643 9.89063C13.083 9.67188 13.3502 9.5625 13.666 9.5625H18.9063C19.222 9.5625 19.4893 9.67188 19.708 9.89063C19.9268 10.1094 20.0361 10.3766 20.0361 10.6923V17.8077C20.0361 18.1234 19.9268 18.3906 19.708 18.6094C19.4893 18.8281 19.222 18.9375 18.9063 18.9375H13.666ZM13.666 18H18.9063C18.9544 18 18.9985 17.9799 19.0385 17.9398C19.0786 17.8998 19.0986 17.8558 19.0986 17.8077V10.6923C19.0986 10.6442 19.0786 10.6002 19.0385 10.5602C18.9985 10.5201 18.9544 10.5 18.9063 10.5H13.666C13.6179 10.5 13.5738 10.5201 13.5338 10.5602C13.4937 10.6002 13.4736 10.6442 13.4736 10.6923V17.8077C13.4736 17.8558 13.4937 17.8998 13.5338 17.9398C13.5738 17.9799 13.6179 18 13.666 18ZM11.4785 21.125C11.1627 21.125 10.8955 21.0156 10.6768 20.7969C10.458 20.5781 10.3486 20.3109 10.3486 19.9952V11.9423H11.2861V19.9952C11.2861 20.0433 11.3062 20.0873 11.3463 20.1273C11.3863 20.1674 11.4304 20.1875 11.4785 20.1875H17.6563V21.125H11.4785Z" fill="white"/>
</g>
</svg>
