<svg width="20" height="20" viewBox="0 0 20 20" fill="none" xmlns="http://www.w3.org/2000/svg">
<mask id="mask0_734_5139" style="mask-type:alpha" maskUnits="userSpaceOnUse" x="0" y="0" width="20" height="20">
<rect width="20" height="20" fill="#D9D9D9"/>
</mask>
<g mask="url(#mask0_734_5139)">
<path d="M9.98394 16.1384C9.31192 15.6427 8.5897 15.2597 7.81727 14.9894C7.04483 14.7191 6.24461 14.5839 5.41663 14.5839C4.90808 14.5839 4.40863 14.6403 3.91825 14.753C3.42786 14.8657 2.9551 15.0316 2.49998 15.2506C2.20298 15.3873 1.9204 15.367 1.65223 15.1897C1.38408 15.0123 1.25 14.7613 1.25 14.4365V5.40451C1.25 5.22502 1.29754 5.05915 1.39263 4.9069C1.48771 4.75465 1.61965 4.6438 1.78846 4.57436C2.35256 4.29979 2.94042 4.09387 3.55206 3.95659C4.1637 3.8193 4.78522 3.75065 5.41663 3.75065C6.22753 3.75065 7.01706 3.86551 7.78521 4.09521C8.55338 4.32492 9.29163 4.64811 9.99996 5.06478V14.6352C10.7029 14.1908 11.4447 13.8628 12.2251 13.6513C13.0056 13.4397 13.7916 13.334 14.5833 13.334C15.0619 13.334 15.5141 13.3676 15.9399 13.4349C16.3656 13.5022 16.8055 13.6085 17.2596 13.7538C17.3183 13.7699 17.3731 13.7712 17.4238 13.7578C17.4746 13.7445 17.5 13.7004 17.5 13.6256V4.26669C17.6442 4.30943 17.7849 4.35697 17.9222 4.40932C18.0595 4.46167 18.1933 4.52737 18.3236 4.60642C18.4657 4.67587 18.5723 4.77736 18.6434 4.9109C18.7144 5.04446 18.7499 5.18762 18.7499 5.3404V14.4204C18.7499 14.7452 18.6118 14.995 18.3357 15.1697C18.0595 15.3443 17.7649 15.366 17.4519 15.2346C17.0021 15.0209 16.536 14.859 16.0536 14.749C15.5713 14.639 15.0812 14.5839 14.5833 14.5839C13.75 14.5839 12.9417 14.7151 12.1586 14.9774C11.3755 15.2396 10.6506 15.6267 9.98394 16.1384ZM11.6666 12.5006V5.00065L15.8333 0.833984V8.75063L11.6666 12.5006ZM8.74998 14.0311V5.82115C8.22755 5.56261 7.68642 5.36122 7.12658 5.21699C6.56675 5.07275 5.99676 5.00063 5.41663 5.00063C4.90274 5.00063 4.41476 5.04791 3.95269 5.14246C3.49062 5.23701 3.05713 5.36815 2.65221 5.53588C2.60947 5.55191 2.57342 5.57462 2.54404 5.60401C2.51465 5.63338 2.49996 5.66944 2.49996 5.71217V13.6545C2.49996 13.7293 2.52533 13.7733 2.57608 13.7867C2.62683 13.8 2.68159 13.796 2.74035 13.7747C3.15167 13.6262 3.57555 13.5156 4.01198 13.4429C4.44841 13.3703 4.91663 13.334 5.41663 13.334C6.0395 13.334 6.63459 13.3983 7.2019 13.5271C7.76922 13.6558 8.28524 13.8238 8.74998 14.0311Z" fill="#333333" fill-opacity="0.75"/>
</g>
</svg>
