<svg width="24" height="24" viewBox="0 0 24 24" fill="none" xmlns="http://www.w3.org/2000/svg">
<mask id="mask0_994_1422" style="mask-type:alpha" maskUnits="userSpaceOnUse" x="0" y="0" width="24" height="24">
<rect width="24" height="24" fill="#D9D9D9"/>
</mask>
<g mask="url(#mask0_994_1422)">
<path d="M12.029 20.4989C9.66805 20.4989 7.66113 19.6725 6.0083 18.0196C4.35563 16.367 3.5293 14.36 3.5293 11.9989C3.5293 9.73604 4.29688 7.79538 5.83205 6.17688C7.36721 4.55821 9.24696 3.68154 11.4713 3.54688C11.615 3.54688 11.756 3.55204 11.8945 3.56237C12.0329 3.57271 12.1687 3.58813 12.302 3.60863C11.7919 4.08546 11.3855 4.66171 11.083 5.33738C10.7804 6.01304 10.629 6.73354 10.629 7.49888C10.629 9.13771 11.2027 10.5308 12.35 11.6781C13.4972 12.8253 14.8902 13.3989 16.529 13.3989C17.3047 13.3989 18.0278 13.2476 18.6983 12.9451C19.3688 12.6425 19.9393 12.236 20.4098 11.7259C20.4303 11.8592 20.4457 11.9951 20.456 12.1336C20.4662 12.272 20.4713 12.413 20.4713 12.5566C20.3431 14.781 19.4698 16.6607 17.8513 18.1959C16.2326 19.7312 14.2919 20.4989 12.029 20.4989ZM12.029 18.9989C13.4957 18.9989 14.8124 18.5947 15.979 17.7864C17.1457 16.978 17.9957 15.9239 18.529 14.6239C18.1957 14.7072 17.8624 14.7739 17.529 14.8239C17.1957 14.8739 16.8624 14.8989 16.529 14.8989C14.479 14.8989 12.7332 14.178 11.2915 12.7364C9.84988 11.2947 9.12905 9.54888 9.12905 7.49888C9.12905 7.16554 9.15405 6.83221 9.20405 6.49888C9.25405 6.16554 9.32071 5.83221 9.40405 5.49888C8.10405 6.03221 7.04988 6.88221 6.24155 8.04888C5.43321 9.21554 5.02905 10.5322 5.02905 11.9989C5.02905 13.9322 5.71238 15.5822 7.07905 16.9489C8.44571 18.3155 10.0957 18.9989 12.029 18.9989Z" fill="#333333"/>
</g>
</svg>
