<svg width="24" height="24" viewBox="0 0 24 24" fill="none" xmlns="http://www.w3.org/2000/svg">
<mask id="mask0_734_5150" style="mask-type:alpha" maskUnits="userSpaceOnUse" x="0" y="0" width="24" height="24">
<rect width="24" height="24" fill="#D9D9D9"/>
</mask>
<g mask="url(#mask0_734_5150)">
<path d="M6.8655 21.5008C6.218 21.5008 5.66192 21.2834 5.19725 20.8488C4.73242 20.4143 4.5 19.8764 4.5 19.2353V5.58353C4.5 5.00786 4.68625 4.49728 5.05875 4.05178C5.43108 3.60628 5.90508 3.32328 6.48075 3.20278L15.8077 1.30078V16.6085L6.6405 18.518C6.46483 18.5579 6.31417 18.6434 6.1885 18.7748C6.06283 18.9063 6 19.0598 6 19.2353C6 19.4571 6.08625 19.6402 6.25875 19.7845C6.43108 19.9287 6.63333 20.0008 6.8655 20.0008H18V4.50078H19.5V21.5008H6.8655ZM8.69225 16.5798L14.3077 15.4123V3.14503L8.69225 4.29303V16.5798ZM7.19225 16.8835V4.59703L6.7885 4.68153C6.56033 4.7277 6.37183 4.83253 6.223 4.99603C6.07433 5.15953 6 5.35536 6 5.58353V17.2298C6.1025 17.1771 6.20767 17.1319 6.3155 17.094C6.42317 17.0562 6.5315 17.0258 6.6405 17.0028L7.19225 16.8835Z" fill="#333333" fill-opacity="0.75"/>
</g>
</svg>
