<svg width="24" height="24" viewBox="0 0 24 24" fill="none" xmlns="http://www.w3.org/2000/svg">
<path d="M19.09 14.4402V18.8802C19.0898 19.5085 18.8401 20.1109 18.3959 20.5551C17.9516 20.9993 17.3492 21.249 16.721 21.2492H5.12002C4.80777 21.2491 4.49863 21.1873 4.21035 21.0673C3.92208 20.9473 3.66035 20.7716 3.44021 20.5501C3.22007 20.3287 3.04586 20.0659 2.92758 19.777C2.80931 19.488 2.74931 19.1785 2.75102 18.8662V7.27824C2.74916 6.96649 2.80919 6.65747 2.92764 6.36909C3.04608 6.08071 3.22059 5.81871 3.44103 5.59826C3.66148 5.37781 3.92348 5.20331 4.21186 5.08487C4.50025 4.96642 4.80927 4.90639 5.12102 4.90824H9.56002" stroke="#333333" stroke-width="1.5" stroke-linecap="round" stroke-linejoin="round"/>
<path d="M19.09 8.99472L15.005 4.90872M6.83496 15.8027V13.6377C6.83696 13.2807 6.97896 12.9377 7.22996 12.6847L16.762 3.15272C16.8884 3.02483 17.039 2.9233 17.205 2.854C17.371 2.7847 17.5491 2.74902 17.729 2.74902C17.9088 2.74902 18.0869 2.7847 18.2529 2.854C18.4189 2.9233 18.5695 3.02483 18.696 3.15272L20.847 5.30372C20.9749 5.4302 21.0764 5.58079 21.1457 5.74678C21.215 5.91277 21.2507 6.09085 21.2507 6.27072C21.2507 6.45059 21.215 6.62868 21.1457 6.79467C21.0764 6.96065 20.9749 7.11124 20.847 7.23772L11.315 16.7697C11.0615 17.0214 10.7192 17.1633 10.362 17.1647H8.19696C8.01803 17.165 7.8408 17.1299 7.67544 17.0616C7.51007 16.9932 7.35982 16.8929 7.2333 16.7664C7.10677 16.6399 7.00646 16.4896 6.9381 16.3242C6.86975 16.1589 6.8347 15.9817 6.83496 15.8027Z" stroke="#333333" stroke-width="1.5" stroke-linecap="round" stroke-linejoin="round"/>
</svg>
