<svg width="23" height="20" viewBox="0 0 23 20" fill="none" xmlns="http://www.w3.org/2000/svg">
<mask id="mask0_594_6615" style="mask-type:alpha" maskUnits="userSpaceOnUse" x="0" y="0" width="23" height="20">
<rect x="0.214844" width="21.8462" height="20" fill="#D9D9D9"/>
</mask>
<g mask="url(#mask0_594_6615)">
<path d="M13.6234 9.75319L17.0543 7.94871L13.6234 6.14423L10.1924 7.94871L13.6234 9.75319ZM13.6234 12.2147L16.0565 10.9295V9.32371L13.6234 10.625L11.1902 9.32371V10.9295L13.6234 12.2147ZM18.1396 16.25H13.6233C13.6233 16.0416 13.6156 15.8333 13.6001 15.625C13.5847 15.4166 13.5615 15.2083 13.5306 15H18.1396C18.2213 15 18.2884 14.9759 18.3409 14.9279C18.3934 14.8798 18.4197 14.8183 18.4197 14.7435V5.25642C18.4197 5.18163 18.3934 5.12019 18.3409 5.0721C18.2884 5.02402 18.2213 4.99998 18.1396 4.99998H4.13571C4.05401 4.99998 3.9869 5.02402 3.93438 5.0721C3.88186 5.12019 3.8556 5.18163 3.8556 5.25642V6.14263C3.62803 6.11431 3.40048 6.09307 3.17293 6.07892C2.94536 6.06476 2.7178 6.05769 2.49023 6.05769V5.25642C2.49023 4.84215 2.65136 4.48752 2.9736 4.19252C3.29583 3.89751 3.6832 3.75 4.13571 3.75H18.1396C18.5921 3.75 18.9795 3.89751 19.3017 4.19252C19.6239 4.48752 19.7851 4.84215 19.7851 5.25642V14.7435C19.7851 15.1578 19.6239 15.5124 19.3017 15.8074C18.9795 16.1025 18.5921 16.25 18.1396 16.25ZM2.49023 16.25V14.1987C3.10874 14.1987 3.6368 14.399 4.07442 14.7996C4.51203 15.2003 4.73083 15.6837 4.73083 16.25H2.49023ZM6.72641 16.25C6.72641 15.1773 6.3133 14.2655 5.48707 13.5144C4.66085 12.7633 3.6619 12.3825 2.49023 12.3718V11.1218C4.04934 11.1218 5.3727 11.6193 6.46032 12.6145C7.54795 13.6096 8.09177 14.8214 8.09177 16.25H6.72641ZM10.2624 16.25C10.2624 15.2628 10.0579 14.3381 9.64886 13.4759C9.23983 12.6137 8.68493 11.8619 7.98416 11.2203C7.28336 10.5788 6.4621 10.0708 5.52036 9.69629C4.57861 9.32182 3.56857 9.13458 2.49023 9.13458V7.88463C3.7541 7.88463 4.93936 8.10308 6.04601 8.54C7.15267 8.97692 8.12101 9.57531 8.95101 10.3352C9.78101 11.095 10.4346 11.9815 10.9119 12.9947C11.3891 14.0078 11.6278 15.0929 11.6278 16.25H10.2624Z" fill="#9603F2"/>
</g>
</svg>
