<svg width="20" height="20" viewBox="0 0 20 20" fill="none" xmlns="http://www.w3.org/2000/svg">
<mask id="mask0_734_5145" style="mask-type:alpha" maskUnits="userSpaceOnUse" x="0" y="0" width="20" height="20">
<rect width="20" height="20" fill="#D9D9D9"/>
</mask>
<g mask="url(#mask0_734_5145)">
<path d="M5.00006 17.9172C4.41781 17.9172 3.92503 17.7155 3.52171 17.3122C3.1184 16.9089 2.91675 16.4174 2.91675 15.8376V13.7505H5.41675V2.24414L6.5706 3.23772L7.74046 2.24414L8.91033 3.23772L10.0802 2.24414L11.2501 3.23772L12.4199 2.24414L13.5898 3.23772L14.7597 2.24414L15.9295 3.23772L17.0834 2.24414V15.8338C17.0834 16.4161 16.8817 16.9089 16.4784 17.3122C16.0751 17.7155 15.5823 17.9172 15.0001 17.9172H5.00006ZM15.0001 16.6672C15.2362 16.6672 15.4341 16.5873 15.5938 16.4276C15.7535 16.2679 15.8334 16.07 15.8334 15.8338V4.16718H6.66673V13.7505H14.1667V15.8338C14.1667 16.07 14.2466 16.2679 14.4063 16.4276C14.566 16.5873 14.764 16.6672 15.0001 16.6672ZM7.66033 7.29216V6.0422H12.3879V7.29216H7.66033ZM7.66033 9.79216V8.5422H12.3879V9.79216H7.66033ZM14.1186 7.40435C13.9146 7.40435 13.7407 7.3325 13.597 7.18881C13.4533 7.04511 13.3815 6.87124 13.3815 6.66718C13.3815 6.46313 13.4533 6.28925 13.597 6.14556C13.7407 6.00186 13.9146 5.93002 14.1186 5.93002C14.3227 5.93002 14.4966 6.00186 14.6403 6.14556C14.784 6.28925 14.8558 6.46313 14.8558 6.66718C14.8558 6.87124 14.784 7.04511 14.6403 7.18881C14.4966 7.3325 14.3227 7.40435 14.1186 7.40435ZM14.1186 9.90435C13.9146 9.90435 13.7407 9.8325 13.597 9.68881C13.4533 9.54511 13.3815 9.37124 13.3815 9.16718C13.3815 8.96313 13.4533 8.78925 13.597 8.64556C13.7407 8.50186 13.9146 8.43002 14.1186 8.43002C14.3227 8.43002 14.4966 8.50186 14.6403 8.64556C14.784 8.78925 14.8558 8.96313 14.8558 9.16718C14.8558 9.37124 14.784 9.54511 14.6403 9.68881C14.4966 9.8325 14.3227 9.90435 14.1186 9.90435ZM5.00006 16.6672H12.9167V15.0005H4.16673V15.8338C4.16673 16.07 4.24659 16.2679 4.40631 16.4276C4.56603 16.5873 4.76395 16.6672 5.00006 16.6672Z" fill="#9603F2"/>
</g>
</svg>
