<svg width="32" height="32" viewBox="0 0 32 32" fill="none" xmlns="http://www.w3.org/2000/svg">
<path d="M15.9999 31.0876C23.4599 31.0876 29.6605 24.9001 29.6605 17.427C29.6605 12.927 27.3839 8.88241 23.9416 6.37784C23.3531 5.92241 22.6159 6.06984 22.2811 6.61899C21.9462 7.18127 22.1205 7.81099 22.6559 8.22641C25.5091 10.2618 27.3702 13.6236 27.3839 17.427C27.3971 23.7493 22.3079 28.811 15.9999 28.811C9.67821 28.811 4.62907 23.7481 4.62907 17.427C4.62907 12.003 8.3525 7.48984 13.4154 6.33784V8.26641C13.4154 9.21727 14.0714 9.47213 14.7942 8.94927L19.0799 5.94927C19.6828 5.53441 19.6965 4.89156 19.0799 4.44927L14.8079 1.44927C14.0708 0.913843 13.4154 1.16813 13.4154 2.1327V4.0207C7.14678 5.23956 2.33936 10.8378 2.33936 17.427C2.33936 24.9001 8.52678 31.0876 15.9999 31.0876ZM19.2411 23.0653C21.4639 23.0653 22.9108 20.9624 22.9108 17.7487C22.9108 14.5076 21.4639 12.3778 19.2411 12.3778C17.0182 12.3778 15.5582 14.5076 15.5582 17.7487C15.5582 20.963 17.0176 23.0653 19.2411 23.0653ZM12.2496 22.9047C12.7719 22.9047 13.1205 22.543 13.1205 21.9807V13.5567C13.1205 12.9001 12.7588 12.4853 12.1559 12.4853C11.7942 12.4853 11.5536 12.6053 11.0576 12.927L9.20964 14.1727C8.90164 14.387 8.76793 14.6281 8.76793 14.9498C8.76793 15.3916 9.11593 15.7664 9.5445 15.7664C9.78564 15.7664 9.91935 15.7127 10.1874 15.5253L11.4331 14.6144V21.9801C11.4331 22.5298 11.7536 22.9047 12.2496 22.9047ZM19.2416 21.4447C18.0496 21.4447 17.2994 20.039 17.2994 17.7487C17.2994 15.4178 18.0365 13.9984 19.2416 13.9984C20.4336 13.9984 21.1565 15.4047 21.1565 17.7487C21.1565 20.0384 20.4199 21.4447 19.2416 21.4447Z" fill="white"/>
</svg>
