<svg width="24" height="24" viewBox="0 0 24 24" fill="none" xmlns="http://www.w3.org/2000/svg">
<path d="M14 9C14 8.60218 14.158 8.22064 14.4393 7.93934C14.7206 7.65804 15.1022 7.5 15.5 7.5C15.8978 7.5 16.2794 7.65804 16.5607 7.93934C16.842 8.22064 17 8.60218 17 9C17 9.39782 16.842 9.77936 16.5607 10.0607C16.2794 10.342 15.8978 10.5 15.5 10.5C15.1022 10.5 14.7206 10.342 14.4393 10.0607C14.158 9.77936 14 9.39782 14 9Z" fill="#333333"/>
<path fill-rule="evenodd" clip-rule="evenodd" d="M7.2681 4.65823C10.4172 4.38476 13.584 4.38476 16.7331 4.65823L18.2431 4.79023C18.945 4.8517 19.6058 5.14744 20.1193 5.62991C20.6328 6.11238 20.9691 6.75352 21.0741 7.45023C21.5277 10.4666 21.5277 13.5339 21.0741 16.5502C20.9691 17.2469 20.6328 17.8881 20.1193 18.3706C19.6058 18.853 18.945 19.1488 18.2431 19.2102L16.7331 19.3412C13.5831 19.6152 10.4171 19.6152 7.2681 19.3412L5.7581 19.2102C5.05603 19.149 4.39497 18.8533 3.88129 18.3708C3.36761 17.8884 3.03117 17.2471 2.9261 16.5502C2.47255 13.5339 2.47255 10.4666 2.9261 7.45023C3.03113 6.75352 3.36742 6.11238 3.8809 5.62991C4.39438 5.14744 5.05521 4.8517 5.7571 4.79023L7.2681 4.65823ZM16.6031 6.15323C13.5402 5.88622 10.46 5.88622 7.3971 6.15323L5.8871 6.28423C5.52099 6.31662 5.17636 6.47105 4.90852 6.72275C4.64068 6.97445 4.46515 7.30883 4.4101 7.67223C4.15244 9.38284 4.04836 11.1131 4.0991 12.8422L7.9701 8.97023C8.04235 8.8981 8.12857 8.84148 8.22347 8.80384C8.31837 8.7662 8.41995 8.74833 8.522 8.75133C8.62405 8.75432 8.72441 8.77812 8.81694 8.82126C8.90947 8.86441 8.99221 8.92599 9.0601 9.00223L12.7321 13.1322L15.2621 12.2882C15.4008 12.2418 15.5501 12.2369 15.6915 12.2743C15.8329 12.3116 15.9604 12.3894 16.0581 12.4982L19.5771 16.4082L19.5911 16.3282C20.0226 13.459 20.0226 10.5414 19.5911 7.67223C19.536 7.30867 19.3603 6.97418 19.0923 6.72246C18.8243 6.47074 18.4794 6.3164 18.1131 6.28423L16.6031 6.15323ZM18.6201 17.5882L15.2711 13.8672L12.7371 14.7112C12.5978 14.7577 12.448 14.7623 12.3061 14.7245C12.1643 14.6866 12.0367 14.6079 11.9391 14.4982L8.4681 10.5932L4.2241 14.8362C4.27277 15.3349 4.33444 15.8319 4.4091 16.3272C4.46399 16.691 4.63957 17.0257 4.90763 17.2776C5.17569 17.5295 5.52066 17.684 5.8871 17.7162L7.3971 17.8472C10.4601 18.1132 13.5401 18.1132 16.6031 17.8472L18.1131 17.7162C18.2911 17.7002 18.4631 17.6562 18.6201 17.5882Z" fill="#333333"/>
</svg>
