<svg width="20" height="20" viewBox="0 0 20 20" fill="none" xmlns="http://www.w3.org/2000/svg">
<mask id="mask0_734_5134" style="mask-type:alpha" maskUnits="userSpaceOnUse" x="0" y="0" width="20" height="20">
<rect width="20" height="20" fill="#D9D9D9"/>
</mask>
<g mask="url(#mask0_734_5134)">
<path d="M10.0001 18.1738C9.03212 17.3201 7.94238 16.658 6.73085 16.1874C5.51931 15.7168 4.24794 15.4601 2.91675 15.4174V6.93985C4.25543 6.97724 5.53454 7.25608 6.75408 7.77639C7.97362 8.2967 9.05562 8.99327 10.0001 9.86612C10.9445 8.99327 12.0265 8.2967 13.246 7.77639C14.4656 7.25608 15.7447 6.97724 17.0834 6.93985V15.4174C15.7436 15.4601 14.4701 15.7168 13.2629 16.1874C12.0556 16.658 10.968 17.3201 10.0001 18.1738ZM10.0001 16.568C10.8751 15.9206 11.8056 15.4013 12.7917 15.0101C13.7778 14.6189 14.7917 14.3604 15.8334 14.2347V8.32443C14.7821 8.50499 13.7642 8.86289 12.7797 9.39814C11.7952 9.9334 10.8686 10.6353 10.0001 11.5039C9.13148 10.6353 8.20493 9.9334 7.22041 9.39814C6.23591 8.86289 5.21802 8.50499 4.16673 8.32443V14.2347C5.20839 14.3604 6.22228 14.6189 7.20839 15.0101C8.19451 15.4013 9.12506 15.9206 10.0001 16.568ZM10.0001 7.32443C9.17155 7.32443 8.46228 7.02943 7.87227 6.43941C7.28227 5.84941 6.98727 5.14015 6.98727 4.31164C6.98727 3.48311 7.28227 2.77385 7.87227 2.18385C8.46228 1.59383 9.17155 1.29883 10.0001 1.29883C10.8286 1.29883 11.5378 1.59383 12.1279 2.18385C12.7179 2.77385 13.0129 3.48311 13.0129 4.31164C13.0129 5.14015 12.7179 5.84941 12.1279 6.43941C11.5378 7.02943 10.8286 7.32443 10.0001 7.32443ZM10.0004 6.07445C10.4852 6.07445 10.9002 5.90181 11.2452 5.55654C11.5903 5.21127 11.7629 4.79621 11.7629 4.31135C11.7629 3.82649 11.5903 3.41151 11.245 3.06643C10.8997 2.72135 10.4846 2.54881 9.99977 2.54881C9.51492 2.54881 9.09996 2.72145 8.75487 3.06672C8.40978 3.412 8.23723 3.82706 8.23723 4.31191C8.23723 4.79677 8.40987 5.21174 8.75514 5.55683C9.10042 5.90191 9.51549 6.07445 10.0004 6.07445Z" fill="#333333" fill-opacity="0.75"/>
</g>
</svg>
