<svg width="32" height="32" viewBox="0 0 32 32" fill="none" xmlns="http://www.w3.org/2000/svg">
<mask id="mask0_655_2642" style="mask-type:alpha" maskUnits="userSpaceOnUse" x="0" y="0" width="32" height="32">
<rect width="32" height="32" fill="#D9D9D9"/>
</mask>
<g mask="url(#mask0_655_2642)">
<path d="M16.0003 27.9999L14.067 26.2665C11.8225 24.2443 9.96699 22.4999 8.50033 21.0332C7.03366 19.5665 5.86699 18.2499 5.00033 17.0832C4.13366 15.9165 3.5281 14.8443 3.18366 13.8665C2.83921 12.8888 2.66699 11.8888 2.66699 10.8665C2.66699 8.77765 3.36699 7.0332 4.76699 5.6332C6.16699 4.2332 7.91144 3.5332 10.0003 3.5332C11.1559 3.5332 12.2559 3.77765 13.3003 4.26654C14.3448 4.75543 15.2448 5.44431 16.0003 6.3332C16.7559 5.44431 17.6559 4.75543 18.7003 4.26654C19.7448 3.77765 20.8448 3.5332 22.0003 3.5332C24.0892 3.5332 25.8337 4.2332 27.2337 5.6332C28.6337 7.0332 29.3337 8.77765 29.3337 10.8665C29.3337 11.8888 29.1614 12.8888 28.817 13.8665C28.4725 14.8443 27.867 15.9165 27.0003 17.0832C26.1337 18.2499 24.967 19.5665 23.5003 21.0332C22.0337 22.4999 20.1781 24.2443 17.9337 26.2665L16.0003 27.9999ZM16.0003 24.3999C18.1337 22.4888 19.8892 20.8499 21.267 19.4832C22.6448 18.1165 23.7337 16.9276 24.5337 15.9165C25.3337 14.9054 25.8892 14.0054 26.2003 13.2165C26.5114 12.4276 26.667 11.6443 26.667 10.8665C26.667 9.5332 26.2225 8.42209 25.3337 7.5332C24.4448 6.64431 23.3337 6.19987 22.0003 6.19987C20.9559 6.19987 19.9892 6.49431 19.1003 7.0832C18.2114 7.67209 17.6003 8.42209 17.267 9.3332H14.7337C14.4003 8.42209 13.7892 7.67209 12.9003 7.0832C12.0114 6.49431 11.0448 6.19987 10.0003 6.19987C8.66699 6.19987 7.55588 6.64431 6.66699 7.5332C5.7781 8.42209 5.33366 9.5332 5.33366 10.8665C5.33366 11.6443 5.48921 12.4276 5.80033 13.2165C6.11144 14.0054 6.66699 14.9054 7.46699 15.9165C8.26699 16.9276 9.35588 18.1165 10.7337 19.4832C12.1114 20.8499 13.867 22.4888 16.0003 24.3999Z" fill="white"/>
</g>
</svg>
