<svg width="150" height="150" viewBox="0 0 150 150" fill="none" xmlns="http://www.w3.org/2000/svg">
<circle cx="75" cy="75" r="75" fill="#F2ECFF"/>
<mask id="mask0_1063_5252" style="mask-type:alpha" maskUnits="userSpaceOnUse" x="45" y="47" width="60" height="60">
<rect x="45" y="47" width="60" height="60" fill="#D9D9D9"/>
</mask>
<g mask="url(#mask0_1063_5252)">
<path d="M75.0961 95.7499C69.8618 95.7499 65.4282 93.9338 61.7954 90.3018C58.1626 86.6697 56.3462 82.237 56.3462 77.0038C56.3462 71.7705 58.1626 67.3365 61.7954 63.7019C65.4282 60.0673 69.8618 58.25 75.0961 58.25C78.0192 58.25 80.7852 58.8999 83.3942 60.1996C86.0032 61.4992 88.173 63.3334 89.9038 65.702V58.25H93.6537V73.5383H78.3654V69.7884H88.2403C86.923 67.375 85.0961 65.4735 82.7596 64.0841C80.423 62.6946 77.8685 61.9999 75.0961 61.9999C70.9295 61.9999 67.3878 63.4583 64.4711 66.3749C61.5545 69.2916 60.0961 72.8333 60.0961 76.9999C60.0961 81.1666 61.5545 84.7083 64.4711 87.6249C67.3878 90.5416 70.9295 91.9999 75.0961 91.9999C78.3045 91.9999 81.2003 91.0833 83.7836 89.2499C86.367 87.4166 88.1795 84.9999 89.2211 81.9999H93.1729C92.0383 86.08 89.8035 89.3917 86.4686 91.935C83.1337 94.4783 79.3429 95.7499 75.0961 95.7499Z" fill="#9603F2"/>
</g>
</svg>
