<svg width="124" height="124" viewBox="0 0 124 124" fill="none" xmlns="http://www.w3.org/2000/svg">
<circle cx="62" cy="62" r="62" fill="#F2ECFF"/>
<path d="M82.0002 48.666H78.6668V45.3327C78.6668 36.1427 71.1902 28.666 62.0002 28.666C52.8102 28.666 45.3335 36.1427 45.3335 45.3327V48.666H42.0002C40.2321 48.666 38.5364 49.3684 37.2861 50.6186C36.0359 51.8689 35.3335 53.5646 35.3335 55.3327V88.666C35.3335 90.4341 36.0359 92.1298 37.2861 93.3801C38.5364 94.6303 40.2321 95.3327 42.0002 95.3327H82.0002C83.7683 95.3327 85.464 94.6303 86.7142 93.3801C87.9644 92.1298 88.6668 90.4341 88.6668 88.666V55.3327C88.6668 53.5646 87.9644 51.8689 86.7142 50.6186C85.464 49.3684 83.7683 48.666 82.0002 48.666ZM52.0002 45.3327C52.0002 39.8193 56.4868 35.3327 62.0002 35.3327C67.5135 35.3327 72.0002 39.8193 72.0002 45.3327V48.666H52.0002V45.3327ZM65.3335 74.4093V81.9993H58.6668V74.4093C56.6835 73.256 55.3335 71.1293 55.3335 68.666C55.3335 66.8979 56.0359 65.2022 57.2861 63.952C58.5364 62.7017 60.2321 61.9993 62.0002 61.9993C63.7683 61.9993 65.464 62.7017 66.7142 63.952C67.9644 65.2022 68.6668 66.8979 68.6668 68.666C68.6668 71.126 67.3168 73.2527 65.3335 74.4093Z" fill="#9603F2"/>
</svg>
