<svg width="24" height="24" viewBox="0 0 24 24" fill="none" xmlns="http://www.w3.org/2000/svg">
<path d="M3.19629 7.87295H20.8043M15.8073 7.87295V2.87695M8.19329 7.87295V2.87695M10.1403 11.928V16.85C10.1403 16.951 10.1723 17.05 10.2313 17.136C10.2913 17.221 10.3763 17.29 10.4773 17.335C10.5791 17.3795 10.6904 17.3976 10.8011 17.3877C10.9118 17.3777 11.0181 17.34 11.1103 17.278L14.9083 14.628C14.9821 14.5767 15.0424 14.5084 15.0843 14.429C15.1237 14.3522 15.1426 14.2665 15.1391 14.1803C15.1355 14.0941 15.1098 14.0103 15.0643 13.937C15.0151 13.8613 14.9495 13.7977 14.8723 13.751L11.0743 11.479C10.9814 11.425 10.8767 11.3945 10.7694 11.3901C10.662 11.3858 10.5552 11.4077 10.4583 11.454C10.3652 11.4989 10.2853 11.5671 10.2263 11.652C10.1711 11.7335 10.1412 11.8295 10.1403 11.928Z" stroke="#333333" stroke-width="1.5" stroke-linecap="round" stroke-linejoin="round"/>
<path d="M15.25 2.75H8.75C5.43629 2.75 2.75 5.43629 2.75 8.75V15.25C2.75 18.5637 5.43629 21.25 8.75 21.25H15.25C18.5637 21.25 21.25 18.5637 21.25 15.25V8.75C21.25 5.43629 18.5637 2.75 15.25 2.75Z" stroke="#333333" stroke-width="1.5"/>
</svg>
