<svg width="33" height="33" viewBox="0 0 33 33" fill="none" xmlns="http://www.w3.org/2000/svg">
<circle cx="16.5" cy="16.5" r="16.5" fill="white"/>
<mask id="mask0_1063_5251" style="mask-type:alpha" maskUnits="userSpaceOnUse" x="9" y="8" width="16" height="16">
<rect x="9" y="8" width="16" height="16" fill="#D9D9D9"/>
</mask>
<g mask="url(#mask0_1063_5251)">
<path d="M20.4935 17.4536L19.7576 16.7048C19.8661 16.5134 19.9497 16.3012 20.0082 16.0683C20.0668 15.8354 20.096 15.5903 20.096 15.3331H21.096C21.096 15.745 21.043 16.1256 20.937 16.4747C20.8311 16.8239 20.6832 17.1501 20.4935 17.4536ZM18.3473 15.2869L17.4294 14.3689V11.3331C17.4294 11.1442 17.3655 10.9858 17.2377 10.8581C17.1099 10.7303 16.9516 10.6664 16.7627 10.6664C16.5738 10.6664 16.4155 10.7303 16.2877 10.8581C16.1599 10.9858 16.096 11.1442 16.096 11.3331V13.0228L15.0961 12.0228V11.3331C15.0961 10.8673 15.2574 10.473 15.58 10.1504C15.9027 9.82774 16.2969 9.66642 16.7627 9.66642C17.2285 9.66642 17.6227 9.82774 17.9454 10.1504C18.268 10.473 18.4293 10.8673 18.4293 11.3331V14.8971C18.4293 14.9723 18.4208 15.0407 18.4037 15.1023C18.3866 15.1638 18.3678 15.2253 18.3473 15.2869ZM16.2627 21.8331V19.6356C15.1627 19.51 14.2488 19.0382 13.521 18.2202C12.7933 17.4023 12.4294 16.4399 12.4294 15.3331H13.4294C13.4294 16.2553 13.7509 17.0414 14.3941 17.6914C15.0373 18.3414 15.8268 18.6664 16.7627 18.6664C17.1918 18.6664 17.595 18.5899 17.9723 18.4369C18.3497 18.2839 18.6836 18.0719 18.9742 17.801L19.6871 18.5138C19.3648 18.8164 18.9982 19.0672 18.587 19.2664C18.1759 19.4655 17.7345 19.5886 17.2627 19.6356V21.8331H16.2627ZM22.2448 22.4766L10.1191 10.351L10.8217 9.64844L22.9473 21.7741L22.2448 22.4766Z" fill="#333333"/>
</g>
</svg>
