<svg width="150" height="150" viewBox="0 0 150 150" fill="none" xmlns="http://www.w3.org/2000/svg">
<circle cx="75" cy="75" r="75" fill="#F2ECFF"/>
<mask id="mask0_1063_5250" style="mask-type:alpha" maskUnits="userSpaceOnUse" x="20" y="20" width="110" height="110">
<rect x="20" y="20" width="110" height="110" fill="#D9D9D9"/>
</mask>
<g mask="url(#mask0_1063_5250)">
<path d="M102.317 78.4335V71.5588H118.888V78.4335H102.317ZM107.553 109.283L94.2967 99.3406L98.4746 93.8584L111.731 103.801L107.553 109.283ZM98.2982 55.9577L94.1205 50.4755L107.377 40.5332L111.555 46.0154L98.2982 55.9577ZM44.0564 104.699V86.8069H39.3848C37.0991 86.8069 35.1468 85.9975 33.5279 84.3787C31.909 82.7598 31.0996 80.8075 31.0996 78.5218V71.4706C31.0996 69.1848 31.909 67.2325 33.5279 65.6136C35.1468 63.9948 37.0991 63.1854 39.3848 63.1854H57.1011L77.6379 50.9339V99.0584L57.1011 86.8069H50.9311V104.699H44.0564ZM70.763 86.8424V63.15L59.0049 70.0603H39.3848C39.0323 70.0603 38.7091 70.2072 38.4152 70.501C38.1214 70.7948 37.9745 71.118 37.9745 71.4706V78.5218C37.9745 78.8743 38.1214 79.1975 38.4152 79.4914C38.7091 79.7852 39.0323 79.9321 39.3848 79.9321H59.0049L70.763 86.8424ZM83.9841 89.2926V60.6997C85.7822 62.3274 87.2307 64.3782 88.3295 66.8519C89.4283 69.3258 89.9777 72.0405 89.9777 74.9962C89.9777 77.9518 89.4283 80.6665 88.3295 83.1404C87.2307 85.6142 85.7822 87.6649 83.9841 89.2926Z" fill="#9603F2"/>
</g>
</svg>
