<svg width="88" height="88" viewBox="0 0 88 88" fill="none" xmlns="http://www.w3.org/2000/svg">
<g clip-path="url(#clip0_10_31836)">
<path d="M58.2362 45.2626V69.1475C58.2362 73.419 54.7742 76.8827 50.5009 76.8827H24.3608C24.2869 76.8827 24.213 76.8862 24.1408 76.893C23.5375 76.9446 22.9702 77.2059 22.5387 77.6374L13.8443 86.3301C13.0329 87.1414 11.644 86.5673 11.644 85.419V78.1719C11.644 77.4603 11.0665 76.8827 10.3548 76.8827H9.02434C4.75275 76.8827 1.28906 73.419 1.28906 69.1475V45.2626C1.28906 40.991 4.75275 37.5273 9.02434 37.5273H50.5009C54.7742 37.5273 58.2362 40.991 58.2362 45.2626Z" fill="#FD7A6E"/>
<path d="M24.1408 76.893C23.5374 76.9446 22.9702 77.2059 22.5387 77.6374L13.8443 86.3301C13.0329 87.1414 11.644 86.5673 11.644 85.419V78.1719C11.644 77.4603 11.0665 76.8827 10.3548 76.8827H9.02434C4.75275 76.8827 1.28906 73.419 1.28906 69.1475V45.2626C1.28906 40.991 4.75275 37.5273 9.02434 37.5273H23.4154C21.2994 39.4165 19.9655 42.1651 19.9655 45.2265V68.6043C19.9655 72.0009 21.6071 75.0142 24.1408 76.893Z" fill="#F85647"/>
<path d="M86.7103 9.02434V37.5589C86.7103 41.8305 83.2466 45.2942 78.975 45.2942H77.6446C76.9329 45.2942 76.3554 45.8718 76.3554 46.5834V53.8288C76.3554 54.9788 74.9665 55.5529 74.1551 54.7416L65.4607 46.0488C64.9776 45.5658 64.3227 45.2942 63.6386 45.2942H48.596L31.1813 42.8121L24.584 37.528V9.02434C24.584 4.75275 28.0477 1.28906 32.3193 1.28906H78.975C83.2466 1.28906 86.7103 4.75275 86.7103 9.02434Z" fill="#FAD989"/>
<path d="M48.596 45.2942H32.3193C28.0477 45.2942 24.584 41.8305 24.584 37.5589V9.02434C24.584 4.75275 28.0477 1.28906 32.3193 1.28906H50.5075C47.0661 2.9616 44.6957 6.48889 44.6957 10.5714V37.2151C44.6957 40.488 46.2204 43.4051 48.596 45.2942Z" fill="#F6CA56"/>
<path d="M68.3609 11.4414V24.7083H65.0485C63.0871 24.7083 61.2272 25.5798 59.9724 27.0873C59.2625 27.9382 58.6351 28.851 58.0953 29.8136C57.5573 30.7779 57.1052 31.7887 56.7494 32.8389C56.1924 34.4805 55.5856 36.2528 55.3862 38.6198C55.3158 39.4689 54.5955 40.117 53.7429 40.117C52.5758 40.117 51.5186 39.6443 50.7537 38.8793C49.9887 38.1144 49.516 37.0573 49.516 35.8901V31.3331C49.516 30.4204 48.7752 29.6812 47.8624 29.6812L44.6961 29.683L43.4258 27.8901V8.57939L45.5452 6.4668H50.3532C53.0399 6.4668 55.6561 7.33831 57.8048 8.9524C58.8826 9.76031 60.0755 10.3826 61.3355 10.8037C62.5955 11.2231 63.9243 11.4414 65.2702 11.4414H68.3609Z" fill="#DB9E82"/>
<path d="M45.5455 6.4668C44.9989 7.72507 44.6964 9.11226 44.6964 10.5717V29.683L38.6714 29.6847C37.0677 29.6847 35.7681 28.3851 35.7681 26.7814C35.7681 25.1793 37.0694 23.8798 38.6714 23.8798H37.9185C36.313 23.8798 34.9551 22.6095 34.9396 21.0057C34.9241 19.3916 36.2288 18.0749 37.8412 18.0749H38.6714C37.0677 18.0749 35.7681 16.7753 35.7681 15.1733C35.7681 13.5712 37.0694 12.2717 38.6714 12.2717H39.5C37.8979 12.2717 36.5984 10.9722 36.5984 9.36839C36.5984 7.76632 37.8979 6.4668 39.5 6.4668H45.5455Z" fill="#C8866A"/>
<path d="M65.9915 8.93555H73.7773C75.2013 8.93555 76.3558 10.09 76.3558 11.514V24.4769C76.3558 25.9009 75.2013 27.0554 73.7773 27.0554H65.9915C64.5675 27.0554 63.4131 25.9009 63.4131 24.4769V11.514C63.4131 10.0898 64.5675 8.93555 65.9915 8.93555Z" fill="#736ACC"/>
<path d="M16.088 65.861C18.8748 65.861 21.134 64.0619 21.134 61.8426C21.134 59.6233 18.8748 57.8242 16.088 57.8242C13.3012 57.8242 11.042 59.6233 11.042 61.8426C11.042 64.0619 13.3012 65.861 16.088 65.861Z" fill="white"/>
<path d="M43.4386 65.861C46.2254 65.861 48.4845 64.0619 48.4845 61.8426C48.4845 59.6233 46.2254 57.8242 43.4386 57.8242C40.6517 57.8242 38.3926 59.6233 38.3926 61.8426C38.3926 64.0619 40.6517 65.861 43.4386 65.861Z" fill="white"/>
<path d="M1.28906 59.9184V45.2626C1.28906 40.991 4.75275 37.5273 9.02434 37.5273H24.2405" stroke="black" stroke-width="2" stroke-miterlimit="10" stroke-linecap="round" stroke-linejoin="round"/>
<path d="M58.2362 45.6387V69.1488C58.2362 73.4204 54.7742 76.8841 50.5009 76.8841H24.3608C23.6767 76.8841 23.0218 77.1556 22.5387 77.6387L13.8443 86.3314C13.0329 87.1428 11.644 86.5686 11.644 85.4204V78.1733C11.644 77.4616 11.0665 76.8841 10.3548 76.8841H9.02434C4.75275 76.8841 1.28906 73.4204 1.28906 69.1488V65.936" stroke="black" stroke-width="2" stroke-miterlimit="10" stroke-linecap="round" stroke-linejoin="round"/>
<path d="M38.6209 45.2942H63.6386C64.3227 45.2942 64.9776 45.5658 65.4607 46.0488L74.1551 54.7416C74.9665 55.5529 76.3554 54.9788 76.3554 53.8288V46.5834C76.3554 45.8718 76.9329 45.2942 77.6446 45.2942H78.975C83.2466 45.2942 86.7103 41.8305 86.7103 37.5589V9.02434C86.7103 4.75275 83.2466 1.28906 78.975 1.28906H32.3193C28.0477 1.28906 24.584 4.75275 24.584 9.02434V37.5589C24.584 41.8305 28.0477 45.2942 32.3193 45.2942H32.6046" stroke="black" stroke-width="2" stroke-miterlimit="10" stroke-linecap="round" stroke-linejoin="round"/>
<path d="M63.2851 24.9472C62.0028 25.3031 60.8425 26.0422 59.9727 27.0873C58.5092 28.8415 57.4376 30.8085 56.7497 32.8389C56.1927 34.4805 55.5859 36.2528 55.3865 38.6198C55.3161 39.4689 54.5958 40.117 53.7432 40.117C51.4077 40.117 49.5163 38.2256 49.5163 35.8901V31.3331C49.5163 30.4204 48.7755 29.6812 47.8627 29.6812L38.6715 29.6847C37.0677 29.6847 35.7682 28.3851 35.7682 26.7814C35.7682 25.1772 37.0727 23.8798 38.6715 23.8798H37.9186C36.3131 23.8798 34.9551 22.6095 34.9396 21.0057C34.9226 19.3969 36.2263 18.0749 37.8412 18.0749H38.6715C37.0677 18.0749 35.7682 16.7753 35.7682 15.1733C35.7682 13.5668 37.0725 12.2717 38.6715 12.2717H39.5C37.8979 12.2717 36.5984 10.9722 36.5984 9.36839C36.5984 7.76495 37.8966 6.4668 39.5 6.4668H50.3535C53.0402 6.4668 55.6564 7.33831 57.8051 8.9524C59.3663 10.1227 61.2255 10.9454 63.2542 11.2764" stroke="black" stroke-width="2" stroke-miterlimit="10" stroke-linecap="round" stroke-linejoin="round"/>
<path d="M39.5 12.2706L41.5732 12.2695" stroke="black" stroke-width="2" stroke-miterlimit="10" stroke-linecap="round" stroke-linejoin="round"/>
<path d="M38.6709 18.0742L41.5727 18.0744" stroke="black" stroke-width="2" stroke-miterlimit="10" stroke-linecap="round" stroke-linejoin="round"/>
<path d="M38.6709 23.8791L41.5727 23.8789" stroke="black" stroke-width="2" stroke-miterlimit="10" stroke-linecap="round" stroke-linejoin="round"/>
<path d="M76.3561 19.6171V24.4766C76.3561 25.9016 75.2026 27.055 73.7776 27.055H65.9925C64.5675 27.055 63.4141 25.9016 63.4141 24.4766V11.514C63.4141 10.0907 64.5675 8.93555 65.9925 8.93555H73.7776C75.2026 8.93555 76.3561 10.0907 76.3561 11.514V13.6008" stroke="black" stroke-width="2" stroke-miterlimit="10" stroke-linecap="round" stroke-linejoin="round"/>
<path d="M34.3165 62.9269C31.906 59.4619 27.6195 59.4619 25.209 62.9269" stroke="black" stroke-width="2" stroke-miterlimit="10" stroke-linecap="round" stroke-linejoin="round"/>
<path d="M15.7246 56.9434C17.2751 58.7225 20.032 58.7225 21.5823 56.9434" stroke="black" stroke-width="2" stroke-miterlimit="10" stroke-linecap="round" stroke-linejoin="round"/>
<path d="M43.8012 56.9434C42.2507 58.7225 39.4939 58.7225 37.9434 56.9434" stroke="black" stroke-width="2" stroke-miterlimit="10" stroke-linecap="round" stroke-linejoin="round"/>
</g>
<defs>
<clipPath id="clip0_10_31836">
<rect width="88" height="88" fill="white"/>
</clipPath>
</defs>
</svg>
