<svg width="100" height="100" viewBox="0 0 100 100" fill="none" xmlns="http://www.w3.org/2000/svg">
<circle cx="50" cy="50" r="50" fill="#F2ECFF"/>
<mask id="mask0_10_30948" style="mask-type:alpha" maskUnits="userSpaceOnUse" x="15" y="22" width="60" height="60">
<rect x="15" y="22" width="60" height="60" fill="#D9D9D9"/>
</mask>
<g mask="url(#mask0_10_30948)">
<path d="M29.9999 75.7495C28.2532 75.7495 26.7748 75.1446 25.5649 73.9347C24.355 72.7247 23.75 71.2501 23.75 69.5109V63.2497H31.25V28.7305L34.7116 31.7112L38.2211 28.7305L41.7308 31.7112L45.2403 28.7305L48.7499 31.7112L52.2596 28.7305L55.7691 31.7112L59.2788 28.7305L62.7883 31.7112L66.2499 28.7305V69.4996C66.2499 71.2463 65.6449 72.7247 64.435 73.9347C63.225 75.1446 61.7467 75.7495 59.9999 75.7495H29.9999ZM59.9999 71.9996C60.7083 71.9996 61.302 71.76 61.7812 71.2808C62.2604 70.8017 62.4999 70.2079 62.4999 69.4996V34.4996H34.9999V63.2497H57.4999V69.4996C57.4999 70.2079 57.7395 70.8017 58.2187 71.2808C58.6979 71.76 59.2916 71.9996 59.9999 71.9996ZM37.9808 43.8745V40.1247H52.1634V43.8745H37.9808ZM37.9808 51.3745V47.6247H52.1634V51.3745H37.9808ZM57.3557 44.2111C56.7435 44.2111 56.2219 43.9956 55.7908 43.5645C55.3597 43.1334 55.1442 42.6118 55.1442 41.9996C55.1442 41.3874 55.3597 40.8658 55.7908 40.4347C56.2219 40.0036 56.7435 39.7881 57.3557 39.7881C57.9679 39.7881 58.4895 40.0036 58.9206 40.4347C59.3517 40.8658 59.5672 41.3874 59.5672 41.9996C59.5672 42.6118 59.3517 43.1334 58.9206 43.5645C58.4895 43.9956 57.9679 44.2111 57.3557 44.2111ZM57.3557 51.7111C56.7435 51.7111 56.2219 51.4956 55.7908 51.0645C55.3597 50.6334 55.1442 50.1118 55.1442 49.4996C55.1442 48.8874 55.3597 48.3658 55.7908 47.9347C56.2219 47.5036 56.7435 47.2881 57.3557 47.2881C57.9679 47.2881 58.4895 47.5036 58.9206 47.9347C59.3517 48.3658 59.5672 48.8874 59.5672 49.4996C59.5672 50.1118 59.3517 50.6334 58.9206 51.0645C58.4895 51.4956 57.9679 51.7111 57.3557 51.7111ZM29.9999 71.9996H53.75V66.9996H27.4999V69.4996C27.4999 70.2079 27.7395 70.8017 28.2187 71.2808C28.6979 71.76 29.2916 71.9996 29.9999 71.9996Z" fill="#9603F2"/>
</g>
</svg>
