<svg width="112" height="112" viewBox="0 0 112 112" fill="none" xmlns="http://www.w3.org/2000/svg">
<circle cx="56" cy="56" r="56" fill="#F2ECFF"/>
<mask id="mask0_1063_5248" style="mask-type:alpha" maskUnits="userSpaceOnUse" x="23" y="23" width="65" height="65">
<rect x="23" y="23" width="65" height="65" fill="#D9D9D9"/>
</mask>
<g mask="url(#mask0_1063_5248)">
<path d="M55.3596 67.9744C56.1339 67.9744 56.7876 67.7079 57.3205 67.1749C57.8535 66.642 58.12 65.9883 58.12 65.214C58.12 64.4397 57.8535 63.7861 57.3205 63.2531C56.7876 62.7202 56.1339 62.4537 55.3596 62.4537C54.5854 62.4537 53.9317 62.7202 53.3987 63.2531C52.8658 63.7861 52.5993 64.4397 52.5993 65.214C52.5993 65.9883 52.8658 66.642 53.3987 67.1749C53.9317 67.7079 54.5854 67.9744 55.3596 67.9744ZM53.443 58.2766H57.2554C57.2728 57.596 57.3197 57.0109 57.396 56.5214C57.4724 56.0318 57.6235 55.5561 57.8492 55.0943C58.0749 54.6325 58.3613 54.1871 58.7086 53.7583C59.0558 53.3295 59.5193 52.8252 60.0991 52.2453C61.5401 50.8043 62.5705 49.5795 63.1903 48.5708C63.8101 47.5622 64.12 46.4155 64.12 45.1308C64.12 42.8773 63.3509 41.0605 61.8127 39.6803C60.2745 38.3 58.2936 37.6099 55.87 37.6099C53.6652 37.6099 51.7807 38.1716 50.2164 39.2949C48.6522 40.4181 47.5403 41.8808 46.8805 43.6828L50.3596 45.0786C50.745 43.9293 51.3856 42.991 52.2815 42.2635C53.1773 41.5361 54.3006 41.1724 55.6513 41.1724C57.1131 41.1724 58.2546 41.5691 59.0758 42.3625C59.897 43.1559 60.3076 44.1203 60.3076 45.2558C60.3076 46.0926 60.0593 46.9137 59.5628 47.7193C59.0662 48.5249 58.3006 49.3947 57.266 50.3287C56.5506 50.9606 55.956 51.5726 55.482 52.1646C55.0081 52.7566 54.6131 53.3651 54.2971 53.9901C53.9812 54.6151 53.7598 55.2653 53.6331 55.9406C53.5064 56.6159 53.443 57.3946 53.443 58.2766ZM55.5003 83.3649L47.9482 75.813H37.3753C36.0073 75.813 34.8493 75.3391 33.9014 74.3911C32.9535 73.4432 32.4795 72.2852 32.4795 70.9172V34.6673C32.4795 33.2993 32.9535 32.1413 33.9014 31.1934C34.8493 30.2454 36.0073 29.7715 37.3753 29.7715H73.6252C74.9932 29.7715 76.1512 30.2454 77.0992 31.1934C78.0471 32.1413 78.521 33.2993 78.521 34.6673V70.9172C78.521 72.2852 78.0471 73.4432 77.0992 74.3911C76.1512 75.3391 74.9932 75.813 73.6252 75.813H63.0523L55.5003 83.3649ZM37.3753 71.7505H49.594L55.5003 77.6568L61.4065 71.7505H73.6252C73.8682 71.7505 74.0679 71.6724 74.2242 71.5161C74.3805 71.3598 74.4586 71.1602 74.4586 70.9171V34.6673C74.4586 34.4242 74.3805 34.2245 74.2242 34.0683C74.0679 33.912 73.8682 33.8338 73.6252 33.8338H37.3753C37.1323 33.8338 36.9326 33.912 36.7763 34.0683C36.6201 34.2245 36.5419 34.4242 36.5419 34.6673V70.9171C36.5419 71.1602 36.6201 71.3598 36.7763 71.5161C36.9326 71.6724 37.1323 71.7505 37.3753 71.7505Z" fill="#9603F2"/>
</g>
</svg>
