<svg width="150" height="150" viewBox="0 0 150 150" fill="none" xmlns="http://www.w3.org/2000/svg">
<circle cx="75" cy="75" r="75" fill="#F2ECFF"/>
<path d="M78.2915 47.416H58.2498C56.8132 47.416 55.4355 47.9867 54.4197 49.0025C53.4039 50.0183 52.8332 51.3961 52.8332 52.8327V96.166C52.8332 97.6026 53.4039 98.9804 54.4197 99.9962C55.4355 101.012 56.8132 101.583 58.2498 101.583H90.7498C92.1864 101.583 93.5642 101.012 94.58 99.9962C95.5958 98.9804 96.1665 97.6026 96.1665 96.166V76.1244M47.4165 58.2493H58.2498M47.4165 69.0827H58.2498M47.4165 79.916H58.2498M47.4165 90.7494H58.2498" stroke="#9603F2" stroke-width="3" stroke-linecap="round" stroke-linejoin="round"/>
<path d="M99.8985 57.2368C100.977 56.158 101.583 54.6947 101.583 53.1689C101.583 51.6432 100.977 50.1799 99.8985 49.101C98.8196 48.0221 97.3563 47.416 95.8306 47.416C94.3048 47.416 92.8415 48.0221 91.7627 49.101L78.1939 62.6752C77.55 63.3187 77.0787 64.1142 76.8235 64.9881L74.5566 72.761C74.4886 72.994 74.4846 73.2411 74.5448 73.4762C74.6051 73.7114 74.7274 73.9261 74.8991 74.0977C75.0707 74.2694 75.2854 74.3917 75.5205 74.452C75.7557 74.5122 76.0027 74.5081 76.2358 74.4402L84.0087 72.1733C84.8826 71.9181 85.678 71.4468 86.3216 70.8029L99.8985 57.2368Z" stroke="#9603F2" stroke-width="3" stroke-linecap="round" stroke-linejoin="round"/>
</svg>
