<svg width="65" height="65" viewBox="0 0 65 65" fill="none" xmlns="http://www.w3.org/2000/svg">
<path d="M21.666 20.995V35.8827C21.6661 36.2473 21.7644 36.6051 21.9504 36.9186C22.1365 37.2321 22.4035 37.4898 22.7234 37.6646C23.0433 37.8394 23.4044 37.9249 23.7688 37.912C24.1331 37.8992 24.4873 37.7885 24.7941 37.5917L37.3012 29.5777C37.4924 29.4552 37.6498 29.2866 37.7588 29.0873C37.8677 28.8881 37.9248 28.6646 37.9248 28.4375C37.9248 28.2104 37.8677 27.9869 37.7588 27.7877C37.6498 27.5884 37.4924 27.4198 37.3012 27.2973L24.7941 19.2833C24.4871 19.0863 24.1327 18.9757 23.7681 18.9629C23.4035 18.9502 23.0422 19.0359 22.7222 19.211C22.4022 19.3862 22.1352 19.6442 21.9494 19.9581C21.7635 20.272 21.6656 20.6302 21.666 20.995ZM14.2181 8.125C11.8836 8.125 9.6448 9.05236 7.99409 10.7031C6.34337 12.3538 5.41602 14.5926 5.41602 16.9271V41.3021C5.41602 43.6365 6.34337 45.8754 7.99409 47.5261C9.6448 49.1768 11.8836 50.1042 14.2181 50.1042H42.6556C44.9901 50.1042 47.2289 49.1768 48.8796 47.5261C50.5303 45.8754 51.4577 43.6365 51.4577 41.3021V16.9271C51.4577 14.5926 50.5303 12.3538 48.8796 10.7031C47.2289 9.05236 44.9901 8.125 42.6556 8.125H14.2181ZM9.47852 16.9271C9.47852 14.3108 11.6018 12.1875 14.2181 12.1875H42.6556C45.2718 12.1875 47.3952 14.3108 47.3952 16.9271V41.3021C47.3952 42.5591 46.8958 43.7646 46.007 44.6535C45.1181 45.5423 43.9126 46.0417 42.6556 46.0417H14.2181C12.9611 46.0417 11.7556 45.5423 10.8667 44.6535C9.97786 43.7646 9.47852 42.5591 9.47852 41.3021V16.9271ZM13.5681 52.8125C14.3643 54.0584 15.4615 55.0837 16.7584 55.7938C18.0554 56.5038 19.5103 56.8756 20.9889 56.875H44.0098C51.8639 56.875 58.2285 50.5104 58.2285 42.6562V23.6979C58.2291 22.2193 57.8573 20.7644 57.1473 19.4674C56.4373 18.1705 55.412 17.0733 54.166 16.2771V42.6562C54.166 45.3499 53.096 47.9331 51.1913 49.8378C49.2867 51.7425 46.7034 52.8125 44.0098 52.8125H13.5681Z" fill="#9603F2"/>
</svg>
