<svg width="29" height="29" viewBox="0 0 29 29" fill="none" xmlns="http://www.w3.org/2000/svg">
<mask id="mask0_10_31187" style="mask-type:alpha" maskUnits="userSpaceOnUse" x="0" y="0" width="29" height="29">
<rect x="13.5186" width="20" height="20" transform="rotate(42.5256 13.5186 0)" fill="#D9D9D9"/>
</mask>
<g mask="url(#mask0_10_31187)">
<path d="M16.1595 16.2301L16.2505 18.3359L15.4056 19.2571L12.6183 16.7007L9.5203 20.0785L8.63724 20.1167L8.59908 19.2336L11.697 15.8558L8.90975 13.2994L9.75465 12.3782L11.8604 12.2872L15.9224 7.85831L15.3083 7.29504L16.1532 6.37382L21.6805 11.4432L20.8356 12.3644L20.2215 11.8012L16.1595 16.2301ZM11.068 13.5828L14.9371 17.1313L14.8786 15.7773L19.3002 10.9563L16.8437 8.70321L12.422 13.5243L11.068 13.5828Z" fill="#333333"/>
</g>
</svg>
