<svg width="24" height="24" viewBox="0 0 24 24" fill="none" xmlns="http://www.w3.org/2000/svg">
<path d="M12.9998 2.0493V4.0493C17.3898 4.5893 20.4998 8.5793 19.9598 12.9693C19.4998 16.6093 16.6398 19.4993 12.9998 19.9293V21.9293C18.4998 21.3793 22.4998 16.4993 21.9498 10.9993C21.4998 6.2493 17.7298 2.4993 12.9998 2.0293V2.0493ZM5.6698 19.7393C7.18477 21.0017 9.03916 21.788 10.9998 21.9993V19.9993C9.57718 19.8154 8.23016 19.2525 7.0998 18.3693L5.6698 19.7393ZM7.0998 5.7393C8.2198 4.8393 9.5698 4.2593 10.9998 4.0593V2.0593C9.0498 2.2493 7.1898 2.9993 5.6698 4.2593L7.0998 5.7393ZM5.6898 7.0993L4.2598 5.6693C3.01025 7.18712 2.2409 9.04261 2.0498 10.9993H4.0498C4.2398 9.5793 4.7998 8.2293 5.6898 7.0993ZM4.0598 12.9993H2.0598C2.2598 14.9593 3.0298 16.8093 4.2698 18.3293L5.6898 16.8993C4.80665 15.7689 4.24366 14.4219 4.0598 12.9993ZM9.9998 16.4993L15.9998 11.9993L9.9998 7.4993V16.4993Z" fill="white"/>
</svg>
