<svg width="16" height="24" viewBox="0 0 16 24" fill="none" xmlns="http://www.w3.org/2000/svg">
<mask id="mask0_10_24699" style="mask-type:alpha" maskUnits="userSpaceOnUse" x="0" y="0" width="24" height="24">
<rect width="24" height="24" fill="#D9D9D9"/>
</mask>
<g mask="url(#mask0_10_24699)">
<path d="M7.875 6.74615L10.5788 3.19808C10.7583 2.95789 10.9714 2.7815 11.2182 2.6689C11.465 2.5563 11.7256 2.5 12 2.5C12.2743 2.5 12.5349 2.5563 12.7817 2.6689C13.0285 2.7815 13.2416 2.95789 13.4211 3.19808L16.125 6.74615L20.2596 8.1423C20.6544 8.26923 20.9625 8.49314 21.1836 8.81403C21.4047 9.13493 21.5153 9.48941 21.5153 9.87748C21.5153 10.0566 21.4892 10.2351 21.4368 10.4132C21.3845 10.5912 21.2984 10.7618 21.1788 10.925L18.4865 14.6615L18.5865 18.6269C18.6031 19.1534 18.4296 19.5973 18.0658 19.9583C17.7021 20.3194 17.2782 20.5 16.7942 20.5C16.7801 20.5 16.6128 20.4782 16.2923 20.4346L12 19.2038L7.70768 20.4346C7.62434 20.4679 7.53833 20.4871 7.44965 20.4923C7.36097 20.4974 7.27967 20.5 7.20575 20.5C6.7173 20.5 6.29231 20.3194 5.93077 19.9583C5.56924 19.5973 5.39681 19.1534 5.41347 18.6269L5.51347 14.6365L2.83655 10.925C2.71688 10.7611 2.63087 10.5899 2.57852 10.4112C2.52617 10.2324 2.5 10.0537 2.5 9.87498C2.5 9.49786 2.60985 9.14714 2.82955 8.82283C3.04925 8.49849 3.35607 8.26845 3.75 8.1327L7.875 6.74615ZM8.8019 8.03843L4.23075 9.5615C4.1346 9.59355 4.06889 9.65926 4.03362 9.75863C3.99837 9.85799 4.0128 9.94935 4.0769 10.0327L7.02305 14.1904L6.91342 18.6577C6.90702 18.7666 6.94549 18.8532 7.02882 18.9173C7.11216 18.9814 7.20512 18.9974 7.3077 18.9654L12 17.6481L16.6923 18.9904C16.7948 19.0224 16.8878 19.0064 16.9711 18.9423C17.0545 18.8782 17.0929 18.7916 17.0865 18.6827L16.9769 14.1904L19.923 10.0827C19.9872 9.99935 20.0016 9.90799 19.9663 9.80863C19.9311 9.70926 19.8654 9.64355 19.7692 9.6115L15.198 8.03843L12.2404 4.1346C12.1827 4.05127 12.1025 4.0096 12 4.0096C11.8974 4.0096 11.8173 4.05127 11.7596 4.1346L8.8019 8.03843Z" fill="#333333"/>
</g>
</svg>
