<svg width="111" height="111" viewBox="0 0 111 111" fill="none" xmlns="http://www.w3.org/2000/svg">
<path d="M25.417 19.0576C25.9591 18.5155 26.6943 18.2109 27.4609 18.2109H89.8984C90.6651 18.2109 91.4003 18.5155 91.9424 19.0576C92.4845 19.5997 92.7891 20.3349 92.7891 21.1016V62.7266C92.7891 63.4932 92.4845 64.2284 91.9424 64.7705C91.4003 65.3126 90.6651 65.6172 89.8984 65.6172H63.8828C62.6057 65.6172 61.5703 66.6525 61.5703 67.9297C61.5703 69.2068 62.6057 70.2422 63.8828 70.2422H71.9766V76.0234H69.0859C67.8088 76.0234 66.7734 77.0588 66.7734 78.3359C66.7734 79.6131 67.8088 80.6484 69.0859 80.6484H82.0938C83.3709 80.6484 84.4062 79.6131 84.4062 78.3359C84.4062 77.0588 83.3709 76.0234 82.0938 76.0234H76.6016V70.2422H89.8984C91.8917 70.2422 93.8033 69.4504 95.2128 68.0409C96.6222 66.6315 97.4141 64.7198 97.4141 62.7266V21.1016C97.4141 19.1083 96.6222 17.1967 95.2128 15.7872C93.8033 14.3778 91.8917 13.5859 89.8984 13.5859H27.4609C25.4677 13.5859 23.556 14.3778 22.1466 15.7872C20.7371 17.1967 19.9453 19.1083 19.9453 21.1016V28.9063C19.9453 30.1834 20.9807 31.2188 22.2578 31.2188C23.535 31.2188 24.5703 30.1834 24.5703 28.9063V21.1016C24.5703 20.3349 24.8749 19.5997 25.417 19.0576Z" fill="#9603F2"/>
<path fill-rule="evenodd" clip-rule="evenodd" d="M59.3304 26.9554C61.2278 25.0581 63.8011 23.9922 66.4844 23.9922C69.1676 23.9922 71.741 25.0581 73.6383 26.9554C75.5356 28.8528 76.6016 31.4261 76.6016 34.1094C76.6016 36.7926 75.5356 39.366 73.6383 41.2633C72.9494 41.9522 72.1713 42.5316 71.3312 42.99C73.566 43.7354 75.6203 44.9932 77.3175 46.6903C80.1906 49.5635 81.8047 53.4602 81.8047 57.5234C81.8047 58.8006 80.7693 59.8359 79.4922 59.8359C78.215 59.8359 77.1797 58.8006 77.1797 57.5234C77.1797 54.6869 76.0529 51.9665 74.0471 49.9607C72.0413 47.955 69.3209 46.8281 66.4844 46.8281C65.2072 46.8281 64.1719 45.7928 64.1719 44.5156C64.1719 44.3289 64.194 44.1474 64.2358 43.9735C62.3927 43.5534 60.6884 42.6213 59.3304 41.2633C57.4331 39.366 56.3672 36.7926 56.3672 34.1094C56.3672 31.4261 57.4331 28.8528 59.3304 26.9554ZM66.4844 28.6172C65.0278 28.6172 63.6308 29.1958 62.6008 30.2258C61.5708 31.2558 60.9922 32.6528 60.9922 34.1094C60.9922 35.566 61.5708 36.963 62.6008 37.9929C63.6308 39.0229 65.0278 39.6016 66.4844 39.6016C67.941 39.6016 69.338 39.0229 70.3679 37.9929C71.3979 36.963 71.9766 35.566 71.9766 34.1094C71.9766 32.6528 71.3979 31.2558 70.3679 30.2258C69.338 29.1958 67.941 28.6172 66.4844 28.6172Z" fill="#9603F2"/>
<path fill-rule="evenodd" clip-rule="evenodd" d="M40.4688 74C35.1789 74 30.1058 76.1014 26.3653 79.8419C22.6248 83.5823 20.5234 88.6555 20.5234 93.9453C20.5234 95.861 18.9704 97.4141 17.0547 97.4141C15.1389 97.4141 13.5859 95.861 13.5859 93.9453C13.5859 86.8156 16.4182 79.9778 21.4597 74.9363C25.0564 71.3396 29.5674 68.8673 34.4463 67.7457C32.0074 66.8675 29.7663 65.4581 27.8983 63.59C24.5644 60.2561 22.6914 55.7344 22.6914 51.0195C22.6914 46.3047 24.5644 41.7829 27.8983 38.4491C31.2322 35.1152 35.7539 33.2422 40.4688 33.2422C45.1836 33.2422 49.7053 35.1152 53.0392 38.4491C56.3731 41.7829 58.2461 46.3047 58.2461 51.0195C58.2461 55.7344 56.3731 60.2561 53.0392 63.59C51.1712 65.4581 48.9301 66.8675 46.4912 67.7457C51.3701 68.8673 55.8811 71.3396 59.4778 74.9363C64.5193 79.9778 67.3516 86.8156 67.3516 93.9453C67.3516 95.861 65.7985 97.4141 63.8828 97.4141C61.9671 97.4141 60.4141 95.861 60.4141 93.9453C60.4141 88.6555 58.3127 83.5823 54.5722 79.8419C50.8317 76.1014 45.7586 74 40.4688 74ZM32.8038 43.3546C34.8367 41.3217 37.5938 40.1797 40.4688 40.1797C43.3437 40.1797 46.1008 41.3217 48.1337 43.3546C50.1665 45.3875 51.3086 48.1446 51.3086 51.0195C51.3086 53.8944 50.1665 56.6516 48.1337 58.6845C46.1008 60.7173 43.3437 61.8594 40.4688 61.8594C37.5938 61.8594 34.8367 60.7173 32.8038 58.6845C30.771 56.6516 29.6289 53.8944 29.6289 51.0195C29.6289 48.1446 30.771 45.3875 32.8038 43.3546Z" fill="#9603F2"/>
</svg>
