<svg width="24" height="24" viewBox="0 0 24 24" fill="none" xmlns="http://www.w3.org/2000/svg">
<path d="M6.74707 4.00047H10.2111C10.4011 4.00053 10.584 4.07271 10.7229 4.20244C10.8617 4.33217 10.9461 4.50977 10.9591 4.69935C10.972 4.88893 10.9126 5.07636 10.7926 5.22377C10.6727 5.37117 10.5013 5.46757 10.3131 5.49347L10.2111 5.50047H6.74707C6.17711 5.50038 5.62835 5.71661 5.21164 6.10547C4.79493 6.49434 4.54133 7.02686 4.50207 7.59547L4.49707 7.75047V17.2505C4.49725 17.8204 4.71373 18.3691 5.10278 18.7856C5.49183 19.2021 6.02445 19.4555 6.59307 19.4945L6.74707 19.5005H16.2471C16.8174 19.5008 17.3665 19.2845 17.7835 18.8954C18.2004 18.5063 18.454 17.9734 18.4931 17.4045L18.4981 17.2505V16.7525C18.4981 16.5624 18.5703 16.3795 18.7 16.2407C18.8298 16.1018 19.0074 16.0174 19.197 16.0044C19.3865 15.9915 19.574 16.051 19.7214 16.1709C19.8688 16.2908 19.9652 16.4622 19.9911 16.6505L19.9981 16.7525V17.2505C19.9979 18.2105 19.6295 19.1338 18.9689 19.8303C18.3083 20.5269 17.4057 20.9435 16.4471 20.9945L16.2471 21.0005H6.74707C5.78691 21.0005 4.8633 20.6323 4.16656 19.9717C3.46981 19.311 3.05302 18.4083 3.00207 17.4495L2.99707 17.2495V7.74947C2.99724 6.78964 3.36544 5.86642 4.02586 5.16992C4.68627 4.47341 5.58861 4.05666 6.54707 4.00547L6.74707 4.00047ZM14.5011 6.52047V3.75047C14.501 3.61251 14.5389 3.47721 14.6108 3.35943C14.6826 3.24166 14.7856 3.14599 14.9083 3.08293C15.031 3.01987 15.1687 2.99188 15.3063 3.00203C15.4438 3.01218 15.576 3.06009 15.6881 3.14047L15.7701 3.20847L21.7651 8.95847C22.0451 9.22747 22.0701 9.65847 21.8411 9.95647L21.7651 10.0415L15.7701 15.7935C15.6705 15.8891 15.5465 15.9553 15.4118 15.985C15.277 16.0147 15.1366 16.0066 15.0061 15.9616C14.8757 15.9166 14.7601 15.8365 14.6723 15.7301C14.5844 15.6237 14.5276 15.4951 14.5081 15.3585L14.5011 15.2515V12.5265L14.1581 12.5565C11.7581 12.8065 9.45807 13.8875 7.24307 15.8165C6.72307 16.2695 5.92107 15.8415 6.00607 15.1585C6.67107 9.83847 9.45307 6.90747 14.2021 6.53947L14.5011 6.52047ZM16.0011 5.50847V7.25047C16.0011 7.44938 15.9221 7.64014 15.7814 7.7808C15.6407 7.92145 15.45 8.00047 15.2511 8.00047C11.3781 8.00047 8.97707 9.67647 7.94007 13.1575L7.86007 13.4355L8.21307 13.1985C10.4491 11.7375 12.7991 11.0005 15.2501 11.0005C15.4315 11.0005 15.6067 11.0663 15.7433 11.1856C15.8799 11.3049 15.9686 11.4697 15.9931 11.6495L16.0001 11.7505V13.4935L20.1621 9.50047L16.0011 5.50847Z" fill="#333333"/>
</svg>
