<svg width="20" height="20" viewBox="0 0 20 20" fill="none" xmlns="http://www.w3.org/2000/svg">
<mask id="mask0_10_31184" style="mask-type:alpha" maskUnits="userSpaceOnUse" x="0" y="0" width="20" height="20">
<rect width="20" height="20" fill="#D9D9D9"/>
</mask>
<g mask="url(#mask0_10_31184)">
<path d="M9.99984 13.9256C10.1905 13.9256 10.3504 13.8611 10.4794 13.7321C10.6084 13.603 10.673 13.4432 10.673 13.2525C10.673 13.0618 10.6084 12.9019 10.4794 12.7729C10.3504 12.644 10.1905 12.5796 9.99984 12.5796C9.80914 12.5796 9.64928 12.644 9.52025 12.7729C9.39123 12.9019 9.32671 13.0618 9.32671 13.2525C9.32671 13.4432 9.39123 13.603 9.52025 13.7321C9.64928 13.8611 9.80914 13.9256 9.99984 13.9256ZM9.37484 11.025H10.6248V5.99289H9.37484V11.025ZM7.05109 17.0827L2.9165 12.9518V7.0506L7.04734 2.91602H12.9486L17.0832 7.04685V12.9481L12.9523 17.0827H7.05109ZM7.58317 15.8327H12.4165L15.8332 12.416V7.58268L12.4165 4.16602H7.58317L4.1665 7.58268V12.416L7.58317 15.8327Z" fill="#333333"/>
</g>
</svg>
