<svg width="32" height="32" viewBox="0 0 32 32" fill="none" xmlns="http://www.w3.org/2000/svg">
<mask id="mask0_655_6734" style="mask-type:alpha" maskUnits="userSpaceOnUse" x="0" y="0" width="32" height="32">
<rect width="32" height="32" fill="#D9D9D9"/>
</mask>
<g mask="url(#mask0_655_6734)">
<path d="M27.333 9.33268H19.9997V7.33268H27.333V9.33268ZM7.33301 26.9993V7.07635C7.33301 6.40279 7.56634 5.83268 8.03301 5.36602C8.49967 4.89935 9.06979 4.66602 9.74334 4.66602H18.5123C18.1192 5.26424 17.8245 5.84968 17.628 6.42235C17.4313 6.99502 17.333 7.63179 17.333 8.33268C17.333 9.90713 17.8428 11.2819 18.8623 12.457C19.8821 13.6323 21.1501 14.337 22.6663 14.571C23.0492 14.6206 23.3826 14.6453 23.6663 14.6453C23.9501 14.6453 24.2835 14.6206 24.6663 14.571V26.9993L15.9997 23.2813L7.33301 26.9993Z" fill="white"/>
</g>
</svg>
