<svg width="18" height="23" viewBox="0 0 18 23" fill="none" xmlns="http://www.w3.org/2000/svg">
<path d="M0.333008 22.9954V3.07244C0.333008 2.39889 0.566341 1.82878 1.03301 1.36211C1.49967 0.895443 2.06979 0.662109 2.74334 0.662109H15.256C15.9296 0.662109 16.4997 0.895443 16.9663 1.36211C17.433 1.82878 17.6663 2.39889 17.6663 3.07244V22.9954L8.99967 19.2774L0.333008 22.9954ZM2.33301 19.9288L8.99967 17.0621L15.6663 19.9288V3.07244C15.6663 2.96978 15.6236 2.87578 15.538 2.79044C15.4527 2.70489 15.3587 2.66211 15.256 2.66211H2.74334C2.64067 2.66211 2.54667 2.70489 2.46134 2.79044C2.37579 2.87578 2.33301 2.96978 2.33301 3.07244V19.9288Z" fill="white"/>
</svg>
