<svg width="24" height="24" viewBox="0 0 24 24" fill="none" xmlns="http://www.w3.org/2000/svg">
<mask id="mask0_975_4847" style="mask-type:alpha" maskUnits="userSpaceOnUse" x="0" y="0" width="24" height="24">
<rect width="24" height="24" fill="#D9D9D9"/>
</mask>
<g mask="url(#mask0_975_4847)">
<path d="M11.4841 21.5C10.4601 21.5 9.59647 20.7376 9.46948 19.7216L9.42357 19.3543C9.35478 18.8039 8.96813 18.353 8.48702 18.077C7.99852 17.7963 7.40634 17.6955 6.88737 17.9148L6.58149 18.0441C5.6274 18.4473 4.52239 18.0763 4.00482 17.1791L3.51519 16.3304C2.99442 15.4276 3.22761 14.2783 4.05907 13.65L4.68411 13.1776C4.90562 13.0102 5.01262 12.7348 4.99477 12.4578C4.9851 12.3078 4.98027 12.1583 4.98027 12.0095C4.98027 11.8673 4.9851 11.7228 4.99477 11.576C5.01443 11.2773 4.89619 10.9827 4.65738 10.8022L4.07524 10.3623C3.23499 9.72725 3.00047 8.5652 3.52866 7.654L3.996 6.84778C4.5191 5.94536 5.63135 5.57228 6.59282 5.97675L6.86153 6.0898C7.39257 6.3132 7.9961 6.21651 8.49477 5.928C8.96984 5.65314 9.34533 5.20425 9.41507 4.65984L9.46115 4.30019C9.593 3.27097 10.469 2.5 11.5067 2.5H12.4883C13.5274 2.5 14.4037 3.27392 14.5322 4.30499L14.5767 4.66199C14.645 5.21055 15.0281 5.65338 15.5023 5.9375C15.9778 6.22223 16.5559 6.32007 17.0679 6.10761L17.3856 5.97574C18.36 5.57136 19.4833 5.95115 20.0124 6.86388L20.4927 7.69254C21.0081 8.58171 20.7792 9.71568 19.9592 10.3353L19.2818 10.8472C19.0594 11.0152 18.9689 11.2974 18.9755 11.576C18.9787 11.7163 18.9803 11.8577 18.9803 12C18.9803 12.1358 18.977 12.274 18.9705 12.4145C18.9571 12.7111 19.0535 13.0108 19.2906 13.1895L19.9356 13.6757C20.7496 14.2891 20.9784 15.4132 20.469 16.2961L19.9673 17.1657C19.4457 18.0698 18.331 18.4416 17.3711 18.0318L17.086 17.9101C16.5637 17.6871 15.9695 17.7837 15.4803 18.072C15.0173 18.3451 14.6461 18.7809 14.5796 19.3142L14.5315 19.7007C14.4034 20.7285 13.5298 21.5 12.4941 21.5H11.4841ZM10.88 19.0184C10.9482 19.5787 11.4239 20 11.9883 20C12.5476 20 13.0205 19.5863 13.0949 19.032L13.1685 18.484C13.2629 17.7806 13.787 17.2299 14.4228 16.9147C14.5254 16.8638 14.6256 16.8099 14.7235 16.753C14.8344 16.6885 14.9442 16.6192 15.053 16.5451C15.634 16.1493 16.3677 15.9831 17.0158 16.2555L17.5276 16.4706C18.0437 16.6875 18.6405 16.4871 18.921 16.0028C19.203 15.516 19.0772 14.8954 18.6279 14.5569L17.8701 13.9859C17.4963 13.7043 17.3597 13.2184 17.4158 12.7537C17.4459 12.5051 17.461 12.2538 17.461 12C17.461 11.7397 17.4459 11.4884 17.4158 11.2463C17.3597 10.7935 17.4904 10.3188 17.8544 10.0438L18.6489 9.44335C19.0972 9.10456 19.2224 8.48465 18.9408 7.99839C18.66 7.51351 18.0624 7.31317 17.5461 7.53081L17.0461 7.74158C16.3791 8.02274 15.6183 7.83735 15.015 7.43731C14.9239 7.37692 14.83 7.31832 14.7333 7.2615C14.6305 7.20118 14.5275 7.14474 14.4242 7.09216C13.7891 6.76882 13.2596 6.20821 13.1762 5.50038L13.1159 4.98848C13.0495 4.42479 12.5718 4 12.0042 4C11.4392 4 10.9628 4.42099 10.8933 4.98167L10.8298 5.49359C10.7422 6.20029 10.2096 6.75159 9.56972 7.06419C9.46807 7.11385 9.36842 7.16679 9.27077 7.223C9.15463 7.28987 9.03994 7.36191 8.92668 7.43913C8.34439 7.83613 7.60949 8.00773 6.95887 7.73683L6.44953 7.52475C5.93459 7.31034 5.34048 7.51096 5.06094 7.99366C4.77825 8.48179 4.90618 9.10428 5.35846 9.44136L6.11332 10.004C6.47693 10.275 6.608 10.7503 6.54952 11.2C6.51618 11.4563 6.49952 11.7262 6.49952 12.0095C6.49952 12.2698 6.51618 12.525 6.54952 12.775C6.60974 13.2267 6.47298 13.6995 6.11022 13.9753L5.3464 14.556C4.89992 14.8954 4.77585 15.5141 5.05692 15.9994C5.33829 16.4853 5.93753 16.6854 6.45439 16.4661L6.94441 16.2582C7.59559 15.982 8.33426 16.1583 8.91942 16.5557C9.02519 16.6275 9.13264 16.6949 9.24177 16.7578C9.34972 16.8199 9.46051 16.8784 9.57414 16.9333C10.2102 17.2408 10.7308 17.7927 10.8162 18.4941L10.88 19.0184ZM12.011 15C12.843 15 13.551 14.708 14.135 14.124C14.719 13.54 15.011 12.832 15.011 12C15.011 11.168 14.719 10.46 14.135 9.876C13.551 9.292 12.843 9 12.011 9C11.1687 9 10.4581 9.292 9.87927 9.876C9.30043 10.46 9.01102 11.168 9.01102 12C9.01102 12.832 9.30043 13.54 9.87927 14.124C10.4581 14.708 11.1687 15 12.011 15Z" fill="white"/>
</g>
</svg>
