<svg width="24" height="24" viewBox="0 0 24 24" fill="none" xmlns="http://www.w3.org/2000/svg">
<mask id="mask0_817_2441" style="mask-type:alpha" maskUnits="userSpaceOnUse" x="0" y="0" width="24" height="24">
<rect width="24" height="24" fill="#D9D9D9"/>
</mask>
<g mask="url(#mask0_817_2441)">
<path d="M12.0014 21.5C10.6875 21.5 9.45244 21.2506 8.29631 20.7519C7.14016 20.2533 6.13447 19.5765 5.27926 18.7217C4.42402 17.8669 3.74696 16.8616 3.24808 15.706C2.7492 14.5504 2.49976 13.3156 2.49976 12.0016C2.49976 10.6877 2.74913 9.45268 3.24788 8.29655C3.74663 7.1404 4.42351 6.13472 5.27851 5.2795C6.13351 4.42427 7.13892 3.74721 8.29476 3.24833C9.45057 2.74944 10.6856 2.5 11.9997 2.5H12.7497V10.7077C12.9856 10.8526 13.1696 11.0332 13.3016 11.2497C13.4337 11.4662 13.4997 11.7167 13.4997 12.0012C13.4997 12.4093 13.3519 12.7612 13.0564 13.0567C12.7609 13.3522 12.4087 13.5 11.9997 13.5C11.5908 13.5 11.2385 13.3522 10.943 13.0567C10.6475 12.7612 10.4998 12.4097 10.4998 12.0023C10.4998 11.7183 10.5658 11.4652 10.6978 11.243C10.8299 11.0207 11.0139 10.8423 11.2498 10.7077V8.0865C10.319 8.26215 9.54461 8.71376 8.92666 9.44133C8.30871 10.1689 7.99973 11.0218 7.99973 12C7.99973 13.1 8.3914 14.0416 9.17473 14.825C9.95806 15.6083 10.8997 16 11.9997 16C13.0997 16 14.0414 15.6083 14.8247 14.825C15.6081 14.0416 15.9997 13.1 15.9997 12C15.9997 11.4 15.8789 10.8458 15.6372 10.3375C15.3956 9.82914 15.0664 9.38331 14.6497 8.99998L15.7189 7.93078C16.2638 8.43589 16.6968 9.03723 17.018 9.7348C17.3391 10.4324 17.4997 11.1874 17.4997 12C17.4997 13.5277 16.9652 14.8263 15.8962 15.8958C14.8272 16.9652 13.5291 17.5 12.002 17.5C10.4749 17.5 9.17603 16.9652 8.10553 15.8958C7.03501 14.8263 6.49976 13.5277 6.49976 12C6.49976 10.5961 6.95392 9.38173 7.86226 8.35673C8.77059 7.33173 9.89976 6.73141 11.2498 6.55578V4.03075C9.20872 4.21663 7.49012 5.06759 6.09396 6.58363C4.69781 8.09964 3.99973 9.90509 3.99973 12C3.99973 14.2333 4.77473 16.125 6.32473 17.675C7.87473 19.225 9.7664 20 11.9997 20C14.2331 20 16.1247 19.225 17.6747 17.675C19.2247 16.125 19.9997 14.2333 19.9997 12C19.9997 10.85 19.7747 9.77498 19.3247 8.77498C18.8747 7.77498 18.2581 6.90831 17.4747 6.17498L18.5439 5.10578C19.4555 5.97756 20.176 7.0035 20.7055 8.1836C21.235 9.36368 21.4997 10.6349 21.4997 11.9971C21.4997 13.3118 21.2504 14.5473 20.7517 15.7034C20.253 16.8595 19.5763 17.8652 18.7215 18.7204C17.8666 19.5757 16.8614 20.2527 15.7057 20.7516C14.5501 21.2505 13.3153 21.5 12.0014 21.5Z" fill="#333333" fill-opacity="0.75"/>
</g>
</svg>
