<svg width="24" height="24" viewBox="0 0 24 24" fill="none" xmlns="http://www.w3.org/2000/svg">
<path d="M16.5298 9.78082C16.6623 9.63865 16.7344 9.4506 16.731 9.2563C16.7276 9.062 16.6489 8.87662 16.5115 8.7392C16.3741 8.60179 16.1887 8.52308 15.9944 8.51965C15.8001 8.51622 15.612 8.58834 15.4698 8.72082L10.9998 13.1908L9.02985 11.2208C8.88767 11.0883 8.69963 11.0162 8.50532 11.0196C8.31102 11.0231 8.12564 11.1018 7.98822 11.2392C7.85081 11.3766 7.7721 11.562 7.76867 11.7563C7.76524 11.9506 7.83737 12.1386 7.96985 12.2808L10.4698 14.7808C10.6105 14.9213 10.8011 15.0002 10.9998 15.0002C11.1986 15.0002 11.3892 14.9213 11.5298 14.7808L16.5298 9.78082Z" fill="#333333"/>
<path d="M12.54 0.636179L20.79 3.31118C21.1416 3.42523 21.448 3.64766 21.6654 3.94658C21.8827 4.24551 21.9999 4.60558 22 4.97518V9.99918C22 16.1892 18.229 20.7032 12.599 22.8292C12.2129 22.9745 11.7871 22.9745 11.401 22.8292C5.77 20.7042 2 16.1892 2 9.99918V4.97518C2 4.21718 2.489 3.54518 3.21 3.31118L11.46 0.636179C11.811 0.522315 12.189 0.522315 12.54 0.636179ZM11.923 2.06218L3.673 4.73818C3.62287 4.75441 3.57914 4.78607 3.54807 4.82863C3.517 4.87119 3.50018 4.92248 3.5 4.97518V9.99918C3.5 15.4592 6.78 19.4822 11.93 21.4252C11.9751 21.442 12.0249 21.442 12.07 21.4252C17.22 19.4822 20.5 15.4602 20.5 9.99918V4.97518C20.4998 4.92248 20.483 4.87119 20.4519 4.82863C20.4209 4.78607 20.3771 4.75441 20.327 4.73818L12.077 2.06218C12.0269 2.04597 11.9731 2.04597 11.923 2.06218Z" fill="#333333"/>
</svg>
