<svg width="16" height="16" viewBox="0 0 16 16" fill="none" xmlns="http://www.w3.org/2000/svg">
<mask id="mask0_817_2389" style="mask-type:alpha" maskUnits="userSpaceOnUse" x="0" y="0" width="16" height="16">
<rect width="16" height="16" fill="#D9D9D9"/>
</mask>
<g mask="url(#mask0_817_2389)">
<path d="M10.3152 11.0183L11.0178 10.3157L8.49984 7.79766V4.66699H7.49984V8.20283L10.3152 11.0183ZM8.001 14.3337C7.125 14.3337 6.30161 14.1674 5.53084 13.835C4.76006 13.5025 4.08961 13.0514 3.5195 12.4815C2.94939 11.9116 2.498 11.2414 2.16534 10.471C1.83278 9.70055 1.6665 8.87738 1.6665 8.00149C1.6665 7.12549 1.83273 6.3021 2.16517 5.53133C2.49761 4.76055 2.94878 4.0901 3.51867 3.51999C4.08856 2.94988 4.75873 2.49849 5.52917 2.16583C6.29961 1.83327 7.12278 1.66699 7.99867 1.66699C8.87467 1.66699 9.69806 1.83321 10.4688 2.16566C11.2396 2.4981 11.9101 2.94927 12.4802 3.51916C13.0503 4.08905 13.5017 4.75921 13.8343 5.52966C14.1669 6.3001 14.3332 7.12327 14.3332 7.99916C14.3332 8.87516 14.1669 9.69855 13.8345 10.4693C13.5021 11.2401 13.0509 11.9105 12.481 12.4807C11.9111 13.0508 11.2409 13.5022 10.4705 13.8348C9.70006 14.1674 8.87689 14.3337 8.001 14.3337ZM7.99984 13.3337C9.47761 13.3337 10.7359 12.8142 11.7748 11.7753C12.8137 10.7364 13.3332 9.4781 13.3332 8.00033C13.3332 6.52255 12.8137 5.26421 11.7748 4.22533C10.7359 3.18644 9.47761 2.66699 7.99984 2.66699C6.52206 2.66699 5.26373 3.18644 4.22484 4.22533C3.18595 5.26421 2.6665 6.52255 2.6665 8.00033C2.6665 9.4781 3.18595 10.7364 4.22484 11.7753C5.26373 12.8142 6.52206 13.3337 7.99984 13.3337Z" fill="#333333"/>
</g>
</svg>
