<svg width="16" height="16" viewBox="0 0 16 16" fill="none" xmlns="http://www.w3.org/2000/svg">
<path d="M8.00033 4.47931C8.00033 4.31397 8.00033 4.23064 8.03833 4.16264C8.07331 4.10454 8.12517 4.05849 8.187 4.03064C8.259 4.00131 8.33233 4.01064 8.479 4.02797C9.13568 4.10723 9.76246 4.34809 10.3032 4.729C10.844 5.10992 11.2818 5.61898 11.5776 6.21063C11.8733 6.80227 12.0178 7.45802 11.9979 8.11917C11.9781 8.78032 11.7946 9.42623 11.4639 9.99907C11.1332 10.5719 10.6656 11.0538 10.1029 11.4016C9.54029 11.7494 8.90019 11.9522 8.23994 11.9919C7.57968 12.0317 6.91988 11.907 6.31961 11.6292C5.71934 11.3514 5.19733 10.929 4.80033 10.4C4.71166 10.2813 4.667 10.222 4.657 10.1453C4.65009 10.0776 4.66405 10.0095 4.697 9.94997C4.737 9.88331 4.80833 9.84197 4.95166 9.75931L7.76033 8.13797C7.84766 8.08731 7.89166 8.06197 7.923 8.02664C7.9505 7.99491 7.97176 7.95827 7.98566 7.91864C8.00033 7.87397 8.00033 7.82331 8.00033 7.72197V4.47931Z" fill="#545454"/>
<path d="M8.00016 13.6663C11.1298 13.6663 13.6668 11.1293 13.6668 7.99967C13.6668 4.87006 11.1298 2.33301 8.00016 2.33301C4.87055 2.33301 2.3335 4.87006 2.3335 7.99967C2.3335 11.1293 4.87055 13.6663 8.00016 13.6663Z" stroke="#545454"/>
</svg>
