<svg width="22" height="20" viewBox="0 0 22 20" fill="none" xmlns="http://www.w3.org/2000/svg">
<mask id="mask0_594_6609" style="mask-type:alpha" maskUnits="userSpaceOnUse" x="0" y="0" width="22" height="20">
<rect width="21.8462" height="20" fill="#D9D9D9"/>
</mask>
<g mask="url(#mask0_594_6609)">
<path d="M14.4246 10.5775L10.8221 7.38684C10.3868 7.00223 10.0207 6.5741 9.7237 6.10246C9.4267 5.63081 9.2782 5.11717 9.2782 4.56155C9.2782 3.87334 9.5413 3.28836 10.0675 2.80661C10.5937 2.32486 11.2327 2.08398 11.9844 2.08398C12.4757 2.08398 12.9294 2.19243 13.3455 2.40932C13.7615 2.62621 14.1212 2.90238 14.4246 3.23784C14.7281 2.90238 15.0878 2.62621 15.5038 2.40932C15.9198 2.19243 16.3735 2.08398 16.8648 2.08398C17.6165 2.08398 18.2555 2.32486 18.7817 2.80661C19.308 3.28836 19.5711 3.87334 19.5711 4.56155C19.5711 5.11717 19.4249 5.63081 19.1325 6.10246C18.8402 6.5741 18.4764 7.00223 18.0411 7.38684L14.4246 10.5775ZM14.4246 8.83719L17.0276 6.5279C17.3334 6.25332 17.6062 5.9547 17.846 5.63205C18.0858 5.30941 18.2057 4.95258 18.2057 4.56155C18.2057 4.21859 18.0759 3.92826 17.8162 3.69055C17.5566 3.45283 17.2394 3.33396 16.8648 3.33396C16.5766 3.33396 16.3128 3.40287 16.0736 3.54069C15.8343 3.67853 15.6231 3.85321 15.4399 4.06476L14.4246 5.19613L13.4094 4.06476C13.2261 3.85321 13.0149 3.67853 12.7757 3.54069C12.5364 3.40287 12.2727 3.33396 11.9844 3.33396C11.6098 3.33396 11.2927 3.45283 11.033 3.69055C10.7734 3.92826 10.6435 4.21859 10.6435 4.56155C10.6435 4.95258 10.7635 5.30941 11.0033 5.63205C11.2431 5.9547 11.5159 6.25332 11.8216 6.5279L14.4246 8.83719ZM6.10102 15.4814L12.7074 17.1929L18.1409 15.6513C18.0943 15.4622 17.998 15.3171 17.852 15.2162C17.7061 15.1152 17.541 15.0647 17.3567 15.0647H12.8989C12.5017 15.0647 12.1642 15.0508 11.8864 15.0231C11.6087 14.9953 11.3233 14.9344 11.0304 14.8404L8.97536 14.2186L9.37972 12.9943L11.223 13.5808C11.4984 13.6663 11.8164 13.7245 12.177 13.7555C12.5376 13.7865 13.0505 13.8062 13.7157 13.8148C13.7157 13.6086 13.6649 13.4307 13.5634 13.2811C13.4619 13.1315 13.3283 13.0306 13.1625 12.9782L7.8813 11.2026C7.86379 11.1972 7.84774 11.1932 7.83315 11.1906C7.81857 11.1879 7.80252 11.1865 7.78502 11.1865H6.10102V15.4814ZM1.5498 17.9173V9.93659H7.77471C7.87027 9.93659 7.96706 9.9462 8.06508 9.96542C8.16311 9.98466 8.25414 10.0071 8.33816 10.0327L13.6422 11.8212C14.0553 11.9612 14.3983 12.2087 14.6714 12.564C14.9445 12.9192 15.081 13.3361 15.081 13.8148H17.3567C18.0102 13.8148 18.5427 14.0079 18.954 14.3941C19.3654 14.7803 19.5711 15.2816 19.5711 15.8981V16.5711L12.7529 18.5102L6.10102 16.773V17.9173H1.5498ZM2.91517 16.6673H4.73568V11.1865H2.91517V16.6673Z" fill="#9603F2"/>
</g>
</svg>
