<svg width="14" height="14" viewBox="0 0 14 14" fill="none" xmlns="http://www.w3.org/2000/svg">
<mask id="mask0_382_9648" style="mask-type:alpha" maskUnits="userSpaceOnUse" x="0" y="0" width="14" height="14">
<rect width="14" height="14" fill="#D9D9D9"/>
</mask>
<g mask="url(#mask0_382_9648)">
<path d="M5.14054 12.7556L4.09958 11.0012L2.12296 10.5681L2.3159 8.53324L0.976562 7.00082L2.3159 5.46841L2.12296 3.43359L4.09958 3.00047L5.14054 1.24609L7.0005 2.03578L8.86046 1.24609L9.90142 3.00047L11.878 3.43359L11.6851 5.46841L13.0244 7.00082L11.6851 8.53324L11.878 10.5681L9.90142 11.0012L8.86046 12.7556L7.0005 11.9659L5.14054 12.7556ZM6.388 8.86968L9.48186 5.77582L8.86717 5.1432L6.388 7.62236L5.13383 6.38614L4.51915 7.00082L6.388 8.86968Z" fill="#9603F2"/>
</g>
</svg>
