<svg width="112" height="104" viewBox="0 0 112 104" fill="none" xmlns="http://www.w3.org/2000/svg">
<g filter="url(#filter0_d_655_5689)">
<path d="M68.7257 46.726C69.131 47.294 69.3337 47.5793 69.3337 47.9993C69.3337 48.4207 69.131 48.7047 68.7257 49.2727C66.9043 51.8273 62.2523 57.3327 56.0003 57.3327C49.747 57.3327 45.0963 51.826 43.275 49.2727C42.8697 48.7047 42.667 48.4193 42.667 47.9993C42.667 47.578 42.8697 47.294 43.275 46.726C45.0963 44.1713 49.7483 38.666 56.0003 38.666C62.2537 38.666 66.9043 44.1727 68.7257 46.726Z" stroke="white" stroke-width="2" stroke-linecap="round" stroke-linejoin="round"/>
<path d="M60 48C60 46.9391 59.5786 45.9217 58.8284 45.1716C58.0783 44.4214 57.0609 44 56 44C54.9391 44 53.9217 44.4214 53.1716 45.1716C52.4214 45.9217 52 46.9391 52 48C52 49.0609 52.4214 50.0783 53.1716 50.8284C53.9217 51.5786 54.9391 52 56 52C57.0609 52 58.0783 51.5786 58.8284 50.8284C59.5786 50.0783 60 49.0609 60 48Z" stroke="white" stroke-width="2" stroke-linecap="round" stroke-linejoin="round"/>
</g>
<defs>
<filter id="filter0_d_655_5689" x="-1" y="-5" width="114" height="114" filterUnits="userSpaceOnUse" color-interpolation-filters="sRGB">
<feFlood flood-opacity="0" result="BackgroundImageFix"/>
<feColorMatrix in="SourceAlpha" type="matrix" values="0 0 0 0 0 0 0 0 0 0 0 0 0 0 0 0 0 0 127 0" result="hardAlpha"/>
<feOffset dy="4"/>
<feGaussianBlur stdDeviation="20.5"/>
<feComposite in2="hardAlpha" operator="out"/>
<feColorMatrix type="matrix" values="0 0 0 0 0.901961 0 0 0 0 0.901961 0 0 0 0 0.901961 0 0 0 1 0"/>
<feBlend mode="normal" in2="BackgroundImageFix" result="effect1_dropShadow_655_5689"/>
<feBlend mode="normal" in="SourceGraphic" in2="effect1_dropShadow_655_5689" result="shape"/>
</filter>
</defs>
</svg>
