<svg width="24" height="24" viewBox="0 0 24 24" fill="none" xmlns="http://www.w3.org/2000/svg">
<g clip-path="url(#clip0_1057_3489)">
<path d="M21.333 10.0013H20.6664V6.0013C20.6664 5.82449 20.5961 5.65492 20.4711 5.5299C20.3461 5.40487 20.1765 5.33464 19.9997 5.33464H3.9997C3.84184 5.33721 3.68819 5.28368 3.5661 5.18357C3.44402 5.08346 3.36143 4.94327 3.33303 4.78797V4.54797C3.36143 4.39266 3.44402 4.25248 3.5661 4.15237C3.68819 4.05226 3.84184 3.99873 3.9997 4.0013H19.7197C19.8965 4.0013 20.0661 3.93106 20.1911 3.80604C20.3161 3.68102 20.3864 3.51145 20.3864 3.33464C20.3864 3.15782 20.3161 2.98826 20.1911 2.86323C20.0661 2.73821 19.8965 2.66797 19.7197 2.66797H3.9997C3.46926 2.66797 2.96056 2.87868 2.58548 3.25376C2.21041 3.62883 1.9997 4.13754 1.9997 4.66797C1.99489 4.7479 1.99489 4.82804 1.9997 4.90797V18.6213C2.00231 18.9803 2.07561 19.3352 2.21539 19.6658C2.35518 19.9964 2.55872 20.2963 2.81439 20.5482C3.07007 20.8002 3.37286 20.9993 3.7055 21.1342C4.03813 21.2692 4.39408 21.3373 4.75303 21.3346H19.9997C20.1765 21.3346 20.3461 21.2644 20.4711 21.1394C20.5961 21.0144 20.6664 20.8448 20.6664 20.668V16.668H21.333C21.5098 16.668 21.6794 16.5977 21.8044 16.4727C21.9295 16.3477 21.9997 16.1781 21.9997 16.0013V10.668C21.9997 10.4912 21.9295 10.3216 21.8044 10.1966C21.6794 10.0715 21.5098 10.0013 21.333 10.0013ZM19.333 20.0013H4.75303C4.38223 20.0049 4.02502 19.8619 3.75909 19.6035C3.49317 19.345 3.34004 18.9921 3.33303 18.6213V6.58797C3.54941 6.6508 3.7746 6.67782 3.9997 6.66797H19.333V10.0013H14.6664C13.7823 10.0013 12.9345 10.3525 12.3093 10.9776C11.6842 11.6027 11.333 12.4506 11.333 13.3346C11.333 14.2187 11.6842 15.0665 12.3093 15.6917C12.9345 16.3168 13.7823 16.668 14.6664 16.668H19.333V20.0013ZM20.6664 15.3346H14.6664C14.1359 15.3346 13.6272 15.1239 13.2521 14.7488C12.8771 14.3738 12.6664 13.8651 12.6664 13.3346C12.6664 12.8042 12.8771 12.2955 13.2521 11.9204C13.6272 11.5453 14.1359 11.3346 14.6664 11.3346H20.6664V15.3346Z" fill="#333333"/>
<path d="M15.3398 14.332C15.8921 14.332 16.3398 13.8843 16.3398 13.332C16.3398 12.7797 15.8921 12.332 15.3398 12.332C14.7876 12.332 14.3398 12.7797 14.3398 13.332C14.3398 13.8843 14.7876 14.332 15.3398 14.332Z" fill="#333333"/>
</g>
<defs>
<clipPath id="clip0_1057_3489">
<rect width="24" height="24" fill="white"/>
</clipPath>
</defs>
</svg>
