<svg width="55" height="55" viewBox="0 0 55 55" fill="none" xmlns="http://www.w3.org/2000/svg">
<path d="M0 55L3.86785 40.8776C1.48229 36.7448 0.227221 32.0559 0.228751 27.2526C0.234865 12.2255 12.4639 0 27.4916 0C34.7841 0.0035571 41.6287 2.84153 46.7767 7.99304C51.9231 13.1445 54.757 19.9918 54.7544 27.2746C54.7478 42.3007 42.5167 54.5282 27.4916 54.5282C27.4905 54.5282 27.4927 54.5282 27.4916 54.5282H27.4798C22.9176 54.5263 18.4344 53.3819 14.4522 51.2103L0 55Z" fill="white" style="fill:white;fill-opacity:1;"/>
<path d="M27.5005 4.60156C15.0013 4.60156 4.83663 14.7626 4.83203 27.252C4.83018 31.5319 6.02794 35.7005 8.29605 39.3074L8.83525 40.1643L6.54557 48.5229L15.1218 46.2742L15.95 46.7649C19.4282 48.8293 23.4161 49.9209 27.4831 49.923H27.4917C39.9811 49.923 50.1458 39.7609 50.1509 27.2704C50.1532 21.2177 47.7986 15.5259 43.5203 11.2445C39.2419 6.96306 33.5532 4.60412 27.5005 4.60156Z" fill="url(#paint0_linear_10_21841)" style=""/>
<path fill-rule="evenodd" clip-rule="evenodd" d="M20.6779 15.8569C20.1673 14.7228 19.6301 14.6998 19.1451 14.6799C18.7478 14.6631 18.2934 14.6641 17.8394 14.6641C17.385 14.6641 16.6472 14.8346 16.0232 15.5163C15.3987 16.1979 13.6387 17.8457 13.6387 21.1973C13.6387 24.5489 16.0799 27.7872 16.4199 28.2421C16.7605 28.6966 21.1323 35.794 28.0567 38.5242C33.8107 40.7934 34.9815 40.342 36.231 40.2286C37.4799 40.1153 40.2612 38.5809 40.8285 36.9904C41.3963 35.3998 41.3963 34.037 41.2262 33.7521C41.0557 33.4677 40.6018 33.2976 39.9201 32.9571C39.239 32.6165 35.8899 30.9683 35.2654 30.741C34.6409 30.5138 34.187 30.4005 33.7326 31.0821C33.2786 31.7638 31.974 33.2976 31.5763 33.7521C31.179 34.207 30.7818 34.2637 30.1001 33.9231C29.419 33.5815 27.2249 32.8631 24.6223 30.5424C22.5973 28.7369 21.2304 26.5071 20.8326 25.8254C20.4354 25.1438 20.7902 24.7751 21.1318 24.4356C21.4377 24.1302 21.813 23.64 22.1541 23.2423C22.4936 22.8445 22.6075 22.5606 22.8342 22.1067C23.0614 21.6517 22.9481 21.254 22.7775 20.9134C22.6075 20.5728 21.2835 17.2038 20.6779 15.8569Z" fill="white" style="fill:white;fill-opacity:1;"/>
<defs>
<linearGradient id="paint0_linear_10_21841" x1="27.0302" y1="7.32133" x2="27.26" y2="46.0511" gradientUnits="userSpaceOnUse">
<stop stop-color="#57D163" style="stop-color:#57D163;stop-color:color(display-p3 0.3412 0.8196 0.3882);stop-opacity:1;"/>
<stop offset="1" stop-color="#23B33A" style="stop-color:#23B33A;stop-color:color(display-p3 0.1373 0.7020 0.2275);stop-opacity:1;"/>
</linearGradient>
</defs>
</svg>
