<svg width="16" height="16" viewBox="0 0 16 16" fill="none" xmlns="http://www.w3.org/2000/svg">
<path d="M7 14.5C7 15.05 7.45 15.5 8 15.5C8.55 15.5 9 15.05 9 14.5H7Z" fill="#616466"/>
<path d="M6.225 12H9.75C9.95 10.925 10.625 9.875 11.325 8.775C12.15 7.5 13 6.175 13 4.9C13 2.475 10.75 0.5 8 0.5C5.25 0.5 3 2.475 3 4.9C3 6.175 3.85 7.5 4.65 8.775C5.35 9.875 6.025 10.925 6.225 12Z" fill="#FFCE31"/>
<path d="M6.6002 8.3999C6.6252 8.5499 6.6752 8.6999 6.7002 8.8499C6.7752 9.1249 6.8252 9.3749 6.9002 9.6499C7.1252 10.5999 7.3252 11.3999 7.5002 12.0249H7.6502C7.5252 11.3999 7.3502 10.5749 7.1252 9.6249C7.0752 9.3749 7.0002 9.0999 6.9502 8.8249C6.9252 8.6999 6.9002 8.5499 6.8502 8.4249C7.0502 8.3749 7.5252 8.2249 8.0002 7.6999C8.4752 8.2249 8.9502 8.3749 9.1502 8.4249C9.1252 8.5749 9.1002 8.6999 9.0502 8.8249C9.0002 9.0999 8.9252 9.3749 8.8752 9.6249C8.6502 10.5749 8.4752 11.3999 8.3502 12.0249H8.5002C8.6502 11.3999 8.8752 10.5999 9.1002 9.6499C9.1502 9.3999 9.2252 9.1249 9.3002 8.8499C9.3252 8.6999 9.3752 8.5499 9.4002 8.3999C9.6002 8.3749 9.7752 8.3249 9.9002 8.1999C10.0502 8.0499 10.1252 7.8749 10.0752 7.6749C10.0502 7.5749 10.0002 7.4499 9.8502 7.4249C9.7752 7.3999 9.7252 7.3999 9.6502 7.4249C9.5752 7.4499 9.5252 7.4999 9.5002 7.5249C9.3752 7.6749 9.3252 7.8249 9.2752 7.9749L9.2002 8.1999C9.2002 8.1999 9.0002 8.2249 8.5252 7.8999C8.2752 7.7249 8.2002 7.5999 8.1252 7.5249C8.2002 7.4249 8.2752 7.3499 8.3502 7.2249C8.3752 7.1499 8.4002 7.0999 8.4252 6.9999C8.4252 6.9249 8.4252 6.8249 8.3752 6.7499C8.3252 6.6749 8.2752 6.5999 8.1502 6.5499C8.1002 6.5249 8.0502 6.5249 8.0002 6.5249C7.9502 6.5249 7.9002 6.5249 7.8502 6.5499C7.7502 6.5999 7.6752 6.6749 7.6252 6.7499C7.5752 6.8249 7.5752 6.9249 7.5752 6.9999C7.5752 7.0749 7.6002 7.1499 7.6502 7.2249C7.7002 7.3499 7.7752 7.4499 7.8752 7.5249C7.8002 7.5999 7.7252 7.7249 7.4752 7.8999C7.0252 8.1999 6.8002 8.1999 6.8002 8.1999L6.7252 7.9749C6.6752 7.8249 6.6252 7.6749 6.5002 7.5249C6.4752 7.4999 6.4252 7.4499 6.3502 7.4249C6.2752 7.3999 6.2002 7.3999 6.1502 7.4249C6.0002 7.4749 5.9502 7.5999 5.9252 7.6749C5.9002 7.8749 5.9752 8.0499 6.1002 8.1999C6.2502 8.3249 6.4252 8.3749 6.6002 8.3999ZM9.5002 8.0249C9.5502 7.8999 9.6002 7.7499 9.7002 7.6749C9.7252 7.6499 9.7502 7.6499 9.7502 7.6499H9.8002C9.8252 7.6499 9.8502 7.6749 9.8752 7.7499C9.9002 7.8499 9.8502 7.9999 9.7502 8.0749C9.6752 8.1249 9.5752 8.1749 9.4752 8.1999C9.4752 8.1249 9.4752 8.0749 9.5002 8.0249ZM7.8502 6.8249C7.9002 6.7749 7.9502 6.7249 8.0002 6.7249C8.0502 6.7249 8.1002 6.7499 8.1502 6.8249C8.2002 6.8999 8.1752 6.9999 8.1252 7.0999C8.1002 7.1749 8.0502 7.2499 8.0002 7.2999C7.9502 7.2249 7.9002 7.1749 7.8752 7.0999C7.8252 7.0249 7.8002 6.9249 7.8502 6.8249ZM6.1502 7.6999C6.1502 7.6499 6.1752 7.6249 6.2252 7.5999H6.2752C6.2752 7.5999 6.3002 7.6249 6.3252 7.6249C6.4002 7.6999 6.4752 7.8499 6.5252 7.9749C6.5502 8.0249 6.5502 8.0749 6.5752 8.1249C6.4752 8.0999 6.3752 8.0749 6.3002 7.9999C6.2002 7.9499 6.1502 7.8249 6.1502 7.6999Z" fill="#C79127"/>
<path d="M6.2251 12.5H9.8001V12.95H6.2251V12.5ZM6.4751 13.4H9.5501V13.85H6.4751V13.4Z" fill="#94989B"/>
<path d="M6.4751 12.95H9.5501V13.4H6.4751V12.95Z" fill="#616466"/>
<path d="M9.8001 12.5L6.4751 13.4V13.875L9.8001 12.95V12.5ZM6.7251 14.325H9.3001V14.775H6.7251V14.325Z" fill="#94989B"/>
<path d="M6.7251 13.875H9.3001V14.325H6.7251V13.875Z" fill="#616466"/>
<path d="M9.5501 13.3999L6.7251 14.3249V14.7999L9.5501 13.8749V13.3999Z" fill="#94989B"/>
</svg>
