<svg width="112" height="112" viewBox="0 0 112 112" fill="none" xmlns="http://www.w3.org/2000/svg">
<circle cx="56" cy="56" r="56" fill="#F2ECFF"/>
<mask id="mask0_1234_5144" style="mask-type:alpha" maskUnits="userSpaceOnUse" x="23" y="28" width="65" height="65">
<rect x="23" y="28" width="65" height="65" fill="#D9D9D9"/>
</mask>
<g mask="url(#mask0_1234_5144)">
<path d="M55.4478 80.4479C53.2638 78.8368 50.9165 77.592 48.4061 76.7135C45.8957 75.8351 43.295 75.3959 40.604 75.3959C38.9513 75.3959 37.328 75.579 35.7343 75.9453C34.1405 76.3116 32.6041 76.8507 31.1249 77.5625C30.1597 78.0069 29.2413 77.9409 28.3697 77.3646C27.4982 76.7881 27.0625 75.9722 27.0625 74.9166V45.5627C27.0625 44.9794 27.217 44.4403 27.526 43.9455C27.8351 43.4507 28.2639 43.0904 28.8125 42.8647C30.6458 41.9724 32.5564 41.3031 34.5442 40.857C36.532 40.4108 38.552 40.1877 40.604 40.1877C43.2395 40.1877 45.8054 40.5609 48.3019 41.3075C50.7985 42.054 53.1978 43.1044 55.4999 44.4586V75.5626C57.7846 74.1181 60.1952 73.0522 62.7317 72.3647C65.2681 71.6772 67.8228 71.3334 70.3957 71.3334C71.9512 71.3334 73.4208 71.4428 74.8045 71.6615C76.1882 71.8803 77.6179 72.2258 79.0936 72.698C79.2846 72.7501 79.4625 72.7544 79.6275 72.711C79.7924 72.6676 79.8749 72.5244 79.8749 72.2813V41.8648C80.3436 42.0037 80.801 42.1582 81.2472 42.3283C81.6934 42.4985 82.1283 42.712 82.5518 42.9689C83.0137 43.1946 83.36 43.5245 83.5909 43.9585C83.8218 44.3925 83.9373 44.8578 83.9373 45.3544V74.8645C83.9373 75.9201 83.4885 76.7317 82.5909 77.2994C81.6933 77.8671 80.7359 77.9375 79.7185 77.5104C78.2567 76.8159 76.742 76.2899 75.1743 75.9323C73.6066 75.5747 72.0137 75.3959 70.3957 75.3959C67.6874 75.3959 65.0606 75.8221 62.5155 76.6745C59.9703 77.5269 57.6145 78.7847 55.4478 80.4479ZM60.9165 68.6251V44.2502L74.4582 30.7085V56.4376L60.9165 68.6251ZM51.4374 73.5991V46.9168C49.7395 46.0765 47.9809 45.422 46.1614 44.9532C44.3419 44.4845 42.4895 44.2501 40.604 44.2501C38.9339 44.2501 37.348 44.4037 35.8462 44.7111C34.3445 45.0183 32.9357 45.4445 31.6197 45.9897C31.4808 46.0418 31.3636 46.1156 31.2681 46.2111C31.1726 46.3065 31.1249 46.4237 31.1249 46.5626V72.3751C31.1249 72.6181 31.2073 72.7614 31.3723 72.8048C31.5372 72.8482 31.7152 72.8352 31.9062 72.7657C33.2429 72.2831 34.6205 71.9237 36.0389 71.6876C37.4573 71.4515 38.979 71.3334 40.604 71.3334C42.6284 71.3334 44.5624 71.5426 46.4062 71.961C48.2499 72.3795 49.927 72.9255 51.4374 73.5991Z" fill="#9603F2"/>
</g>
</svg>
