<svg width="73" height="16" viewBox="0 0 73 16" fill="none" xmlns="http://www.w3.org/2000/svg">
<path d="M64.9411 0V5.64706H72.2183L64.9411 0Z" fill="#FFC727"/>
<g clip-path="url(#clip0_1115_4078)">
<path d="M6.98605 0V5.33333H0L6.98605 0Z" fill="#FFC727"/>
<path d="M6.98584 0H64.2715C66.2006 0 67.7645 1.49239 67.7645 3.33333V12.6667C67.7645 14.5076 66.2006 16 64.2715 16H10.4789C8.54974 16 6.98584 14.5076 6.98584 12.6667V0Z" fill="#FCA120"/>
<path d="M9.56 11V5.24H11.888C11.944 5.24 12.0133 5.24267 12.096 5.248C12.1787 5.25067 12.2573 5.25867 12.332 5.272C12.652 5.32267 12.9187 5.432 13.132 5.6C13.348 5.768 13.5093 5.98 13.616 6.236C13.7227 6.492 13.776 6.77467 13.776 7.084C13.776 7.54267 13.6587 7.93867 13.424 8.272C13.1893 8.60267 12.8373 8.80933 12.368 8.892L12.028 8.932H10.396V11H9.56ZM12.928 11L11.792 8.656L12.636 8.44L13.884 11H12.928ZM10.396 8.14H11.856C11.9093 8.14 11.968 8.13733 12.032 8.132C12.0987 8.12667 12.1613 8.11733 12.22 8.104C12.3907 8.064 12.528 7.99067 12.632 7.884C12.736 7.77467 12.8107 7.64933 12.856 7.508C12.9013 7.36667 12.924 7.22533 12.924 7.084C12.924 6.94267 12.9013 6.80267 12.856 6.664C12.8107 6.52267 12.736 6.39867 12.632 6.292C12.528 6.18267 12.3907 6.108 12.22 6.068C12.1613 6.052 12.0987 6.04133 12.032 6.036C11.968 6.03067 11.9093 6.028 11.856 6.028H10.396V8.14ZM16.6791 11.12C16.2498 11.12 15.8725 11.0267 15.5471 10.84C15.2245 10.6507 14.9725 10.388 14.7911 10.052C14.6125 9.71333 14.5231 9.32133 14.5231 8.876C14.5231 8.404 14.6111 7.99467 14.7871 7.648C14.9658 7.30133 15.2138 7.03333 15.5311 6.844C15.8485 6.65467 16.2178 6.56 16.6391 6.56C17.0791 6.56 17.4538 6.66267 17.7631 6.868C18.0725 7.07067 18.3031 7.36 18.4551 7.736C18.6098 8.112 18.6711 8.55867 18.6391 9.076H17.8031V8.772C17.7978 8.27067 17.7018 7.9 17.5151 7.66C17.3311 7.42 17.0498 7.3 16.6711 7.3C16.2525 7.3 15.9378 7.432 15.7271 7.696C15.5165 7.96 15.4111 8.34133 15.4111 8.84C15.4111 9.31467 15.5165 9.68267 15.7271 9.944C15.9378 10.2027 16.2418 10.332 16.6391 10.332C16.9005 10.332 17.1258 10.2733 17.3151 10.156C17.5071 10.036 17.6565 9.86533 17.7631 9.644L18.5831 9.904C18.4151 10.2907 18.1605 10.5907 17.8191 10.804C17.4778 11.0147 17.0978 11.12 16.6791 11.12ZM15.1391 9.076V8.424H18.2231V9.076H15.1391ZM21.3846 11.12C20.9419 11.12 20.5659 11.0213 20.2566 10.824C19.9472 10.6267 19.7099 10.356 19.5446 10.012C19.3819 9.668 19.2992 9.27733 19.2966 8.84C19.2992 8.39467 19.3846 8.00133 19.5526 7.66C19.7206 7.316 19.9606 7.04667 20.2726 6.852C20.5846 6.65733 20.9592 6.56 21.3966 6.56C21.8686 6.56 22.2712 6.67733 22.6046 6.912C22.9406 7.14667 23.1619 7.468 23.2686 7.876L22.4366 8.116C22.3539 7.87333 22.2179 7.68533 22.0286 7.552C21.8419 7.416 21.6272 7.348 21.3846 7.348C21.1099 7.348 20.8846 7.41333 20.7086 7.544C20.5326 7.672 20.4019 7.848 20.3166 8.072C20.2312 8.296 20.1872 8.552 20.1846 8.84C20.1872 9.28533 20.2886 9.64533 20.4886 9.92C20.6912 10.1947 20.9899 10.332 21.3846 10.332C21.6539 10.332 21.8712 10.2707 22.0366 10.148C22.2046 10.0227 22.3326 9.844 22.4206 9.612L23.2686 9.812C23.1272 10.2333 22.8939 10.5573 22.5686 10.784C22.2432 11.008 21.8486 11.12 21.3846 11.12ZM25.8423 11.12C25.4103 11.12 25.0356 11.0227 24.7183 10.828C24.4009 10.6333 24.1556 10.3653 23.9823 10.024C23.8116 9.68 23.7263 9.284 23.7263 8.836C23.7263 8.38533 23.8143 7.98933 23.9903 7.648C24.1663 7.304 24.4129 7.03733 24.7303 6.848C25.0476 6.656 25.4183 6.56 25.8423 6.56C26.2743 6.56 26.6489 6.65733 26.9663 6.852C27.2836 7.04667 27.5289 7.31467 27.7023 7.656C27.8756 7.99733 27.9623 8.39067 27.9623 8.836C27.9623 9.28667 27.8743 9.684 27.6983 10.028C27.5249 10.3693 27.2796 10.6373 26.9623 10.832C26.6449 11.024 26.2716 11.12 25.8423 11.12ZM25.8423 10.332C26.2556 10.332 26.5636 10.1933 26.7663 9.916C26.9716 9.636 27.0743 9.276 27.0743 8.836C27.0743 8.38533 26.9703 8.02533 26.7623 7.756C26.5569 7.484 26.2503 7.348 25.8423 7.348C25.5623 7.348 25.3316 7.412 25.1503 7.54C24.9689 7.66533 24.8343 7.84 24.7463 8.064C24.6583 8.28533 24.6143 8.54267 24.6143 8.836C24.6143 9.28933 24.7183 9.652 24.9263 9.924C25.1343 10.196 25.4396 10.332 25.8423 10.332ZM34.0173 11L34.0213 8.308C34.0213 7.996 33.9413 7.75333 33.7813 7.58C33.6213 7.404 33.4106 7.316 33.1493 7.316C32.9893 7.316 32.8426 7.35333 32.7092 7.428C32.5786 7.5 32.4719 7.60933 32.3893 7.756C32.3093 7.9 32.2693 8.08133 32.2693 8.3L31.8653 8.096C31.8599 7.792 31.9239 7.52533 32.0573 7.296C32.1933 7.06667 32.3773 6.88933 32.6093 6.764C32.8413 6.636 33.1013 6.572 33.3893 6.572C33.8559 6.572 34.2173 6.712 34.4733 6.992C34.7293 7.272 34.8573 7.644 34.8573 8.108L34.8533 11H34.0173ZM28.8373 11V6.68H29.5813V7.928H29.6773V11H28.8373ZM31.4293 11L31.4333 8.324C31.4333 8.00933 31.3533 7.76267 31.1933 7.584C31.0359 7.40533 30.8239 7.316 30.5573 7.316C30.2933 7.316 30.0799 7.40667 29.9173 7.588C29.7573 7.76933 29.6773 8.00667 29.6773 8.3L29.2773 8.044C29.2773 7.76133 29.3453 7.50933 29.4813 7.288C29.6173 7.06667 29.8013 6.892 30.0333 6.764C30.2653 6.636 30.5279 6.572 30.8213 6.572C31.1279 6.572 31.3893 6.63733 31.6053 6.768C31.8213 6.896 31.9853 7.076 32.0973 7.308C32.2119 7.54 32.2693 7.80933 32.2693 8.116L32.2653 11H31.4293ZM41.0719 11L41.0759 8.308C41.0759 7.996 40.9959 7.75333 40.8359 7.58C40.6759 7.404 40.4653 7.316 40.2039 7.316C40.0439 7.316 39.8973 7.35333 39.7639 7.428C39.6333 7.5 39.5266 7.60933 39.4439 7.756C39.3639 7.9 39.3239 8.08133 39.3239 8.3L38.9199 8.096C38.9146 7.792 38.9786 7.52533 39.1119 7.296C39.2479 7.06667 39.4319 6.88933 39.6639 6.764C39.8959 6.636 40.1559 6.572 40.4439 6.572C40.9106 6.572 41.2719 6.712 41.5279 6.992C41.7839 7.272 41.9119 7.644 41.9119 8.108L41.9079 11H41.0719ZM35.8919 11V6.68H36.6359V7.928H36.7319V11H35.8919ZM38.4839 11L38.4879 8.324C38.4879 8.00933 38.4079 7.76267 38.2479 7.584C38.0906 7.40533 37.8786 7.316 37.6119 7.316C37.3479 7.316 37.1346 7.40667 36.9719 7.588C36.8119 7.76933 36.7319 8.00667 36.7319 8.3L36.3319 8.044C36.3319 7.76133 36.3999 7.50933 36.5359 7.288C36.6719 7.06667 36.8559 6.892 37.0879 6.764C37.3199 6.636 37.5826 6.572 37.8759 6.572C38.1826 6.572 38.4439 6.63733 38.6599 6.768C38.8759 6.896 39.0399 7.076 39.1519 7.308C39.2666 7.54 39.3239 7.80933 39.3239 8.116L39.3199 11H38.4839ZM44.8119 11.12C44.3826 11.12 44.0053 11.0267 43.6799 10.84C43.3573 10.6507 43.1053 10.388 42.9239 10.052C42.7453 9.71333 42.6559 9.32133 42.6559 8.876C42.6559 8.404 42.7439 7.99467 42.9199 7.648C43.0986 7.30133 43.3466 7.03333 43.6639 6.844C43.9813 6.65467 44.3506 6.56 44.7719 6.56C45.2119 6.56 45.5866 6.66267 45.8959 6.868C46.2053 7.07067 46.4359 7.36 46.5879 7.736C46.7426 8.112 46.8039 8.55867 46.7719 9.076H45.9359V8.772C45.9306 8.27067 45.8346 7.9 45.6479 7.66C45.4639 7.42 45.1826 7.3 44.8039 7.3C44.3853 7.3 44.0706 7.432 43.8599 7.696C43.6493 7.96 43.5439 8.34133 43.5439 8.84C43.5439 9.31467 43.6493 9.68267 43.8599 9.944C44.0706 10.2027 44.3746 10.332 44.7719 10.332C45.0333 10.332 45.2586 10.2733 45.4479 10.156C45.6399 10.036 45.7893 9.86533 45.8959 9.644L46.7159 9.904C46.5479 10.2907 46.2933 10.5907 45.9519 10.804C45.6106 11.0147 45.2306 11.12 44.8119 11.12ZM43.2719 9.076V8.424H46.3559V9.076H43.2719ZM50.5842 11V8.876C50.5842 8.708 50.5695 8.536 50.5402 8.36C50.5135 8.18133 50.4602 8.016 50.3802 7.864C50.3029 7.712 50.1922 7.58933 50.0482 7.496C49.9069 7.40267 49.7215 7.356 49.4922 7.356C49.3429 7.356 49.2015 7.38133 49.0682 7.432C48.9349 7.48 48.8175 7.55867 48.7162 7.668C48.6175 7.77733 48.5389 7.92133 48.4802 8.1C48.4242 8.27867 48.3962 8.496 48.3962 8.752L47.8762 8.556C47.8762 8.164 47.9495 7.81867 48.0962 7.52C48.2429 7.21867 48.4535 6.984 48.7282 6.816C49.0029 6.648 49.3349 6.564 49.7242 6.564C50.0229 6.564 50.2735 6.612 50.4762 6.708C50.6789 6.804 50.8429 6.93067 50.9682 7.088C51.0962 7.24267 51.1935 7.412 51.2602 7.596C51.3269 7.78 51.3722 7.96 51.3962 8.136C51.4202 8.312 51.4322 8.46667 51.4322 8.6V11H50.5842ZM47.5482 11V6.68H48.2962V7.928H48.3962V11H47.5482ZM54.1354 11.12C53.7327 11.12 53.3847 11.02 53.0914 10.82C52.8007 10.62 52.5754 10.348 52.4154 10.004C52.258 9.65733 52.1794 9.268 52.1794 8.836C52.1794 8.40133 52.2594 8.01333 52.4194 7.672C52.5794 7.328 52.806 7.05733 53.0994 6.86C53.3954 6.66 53.746 6.56 54.1514 6.56C54.5594 6.56 54.902 6.66 55.1794 6.86C55.4594 7.05733 55.67 7.328 55.8114 7.672C55.9554 8.016 56.0274 8.404 56.0274 8.836C56.0274 9.268 55.9554 9.656 55.8114 10C55.6674 10.344 55.4554 10.6173 55.1754 10.82C54.8954 11.02 54.5487 11.12 54.1354 11.12ZM54.2514 10.364C54.526 10.364 54.75 10.2987 54.9234 10.168C55.0967 10.0373 55.2234 9.85733 55.3034 9.628C55.3834 9.39867 55.4234 9.13467 55.4234 8.836C55.4234 8.53733 55.382 8.27333 55.2994 8.044C55.2194 7.81467 55.094 7.636 54.9234 7.508C54.7554 7.38 54.5407 7.316 54.2794 7.316C54.002 7.316 53.774 7.384 53.5954 7.52C53.4167 7.656 53.2834 7.83867 53.1954 8.068C53.11 8.29733 53.0674 8.55333 53.0674 8.836C53.0674 9.12133 53.11 9.38 53.1954 9.612C53.2834 9.84133 53.414 10.024 53.5874 10.16C53.7634 10.296 53.9847 10.364 54.2514 10.364ZM55.4234 11V7.892H55.3274V5.24H56.1674V11H55.4234ZM59.2026 11.12C58.7732 11.12 58.3959 11.0267 58.0706 10.84C57.7479 10.6507 57.4959 10.388 57.3146 10.052C57.1359 9.71333 57.0466 9.32133 57.0466 8.876C57.0466 8.404 57.1346 7.99467 57.3106 7.648C57.4892 7.30133 57.7372 7.03333 58.0546 6.844C58.3719 6.65467 58.7412 6.56 59.1626 6.56C59.6026 6.56 59.9772 6.66267 60.2866 6.868C60.5959 7.07067 60.8266 7.36 60.9786 7.736C61.1332 8.112 61.1946 8.55867 61.1626 9.076H60.3266V8.772C60.3212 8.27067 60.2252 7.9 60.0386 7.66C59.8546 7.42 59.5732 7.3 59.1946 7.3C58.7759 7.3 58.4612 7.432 58.2506 7.696C58.0399 7.96 57.9346 8.34133 57.9346 8.84C57.9346 9.31467 58.0399 9.68267 58.2506 9.944C58.4612 10.2027 58.7652 10.332 59.1626 10.332C59.4239 10.332 59.6492 10.2733 59.8386 10.156C60.0306 10.036 60.1799 9.86533 60.2866 9.644L61.1066 9.904C60.9386 10.2907 60.6839 10.5907 60.3426 10.804C60.0012 11.0147 59.6212 11.12 59.2026 11.12ZM57.6626 9.076V8.424H60.7466V9.076H57.6626ZM63.776 11.12C63.3733 11.12 63.0253 11.02 62.732 10.82C62.4413 10.62 62.216 10.348 62.056 10.004C61.8987 9.65733 61.82 9.268 61.82 8.836C61.82 8.40133 61.9 8.01333 62.06 7.672C62.22 7.328 62.4467 7.05733 62.74 6.86C63.036 6.66 63.3867 6.56 63.792 6.56C64.2 6.56 64.5427 6.66 64.82 6.86C65.1 7.05733 65.3107 7.328 65.452 7.672C65.596 8.016 65.668 8.404 65.668 8.836C65.668 9.268 65.596 9.656 65.452 10C65.308 10.344 65.096 10.6173 64.816 10.82C64.536 11.02 64.1893 11.12 63.776 11.12ZM63.892 10.364C64.1667 10.364 64.3907 10.2987 64.564 10.168C64.7373 10.0373 64.864 9.85733 64.944 9.628C65.024 9.39867 65.064 9.13467 65.064 8.836C65.064 8.53733 65.0227 8.27333 64.94 8.044C64.86 7.81467 64.7347 7.636 64.564 7.508C64.396 7.38 64.1813 7.316 63.92 7.316C63.6427 7.316 63.4147 7.384 63.236 7.52C63.0573 7.656 62.924 7.83867 62.836 8.068C62.7507 8.29733 62.708 8.55333 62.708 8.836C62.708 9.12133 62.7507 9.38 62.836 9.612C62.924 9.84133 63.0547 10.024 63.228 10.16C63.404 10.296 63.6253 10.364 63.892 10.364ZM65.064 11V7.892H64.968V5.24H65.808V11H65.064Z" fill="white"/>
</g>
<defs>
<clipPath id="clip0_1115_4078">
<rect width="67.7647" height="16" fill="white"/>
</clipPath>
</defs>
</svg>
